<svg width="1092" height="279.81116" xmlns="http://www.w3.org/2000/svg" preserveAspectRatio="xMidYMid meet">
 <mask height="63" width="48" y="253" x="611" maskUnits="userSpaceOnUse" id="8c38c75a-4653-40fa-a194-452a5757f492">
  <path id="svg_1" fill="#001543" d="m611.192,261.403c0,-2.102 0,-3.154 0.266,-4.008c0.584,-1.883 2.071,-3.357 3.971,-3.936c0.863,-0.263 1.924,-0.263 4.046,-0.263l38.53,0l0,48.719c0,3.364 0,5.046 -0.424,6.413c-0.936,3.013 -3.315,5.371 -6.355,6.297c-1.38,0.421 -3.077,0.421 -6.472,0.421l-33.562,0l0,-53.643z"/>
 </mask>
 <defs>
  <clipPath id="4a133433-a062-4602-84f5-275fc8ac0eef">
   <rect id="svg_2" fill="white" height="76.3213" width="76.3213" y="112.635" x="363.576"/>
  </clipPath>
  <clipPath id="f33b924e-a343-4f10-b06a-67e1c97a58d1">
   <rect id="svg_3" fill="white" height="46.5068" width="166.877" y="534.74" x="611.192"/>
  </clipPath>
  <clipPath id="1f8f7a88-c8c4-46b9-bc1e-07aeb803754e">
   <rect id="svg_4" fill="white" height="34.6207" width="176.113" y="270.661" x="308.014"/>
  </clipPath>
 </defs>
 <g>
  <title>background</title>
  <rect fill="none" id="canvas_background" height="281.81116" width="1094" y="-1" x="-1"/>
 </g>
 <g>
  <title>Layer 1</title>
  <path id="svg_5" fill="#001543" d="m204.635994,32.20993c-6.155,-1.1468 -8.914,-3.7493 -8.429,-6.4985c0.379,-2.1387 2.499,-4.681 7.932,-4.681c11.08,0 14.477,10.7972 14.477,10.7972l2.588,0l0,-12.6147l-3.11,0c0,1.3762 -1.362,2.0744 -2.613,2.102c-2.171,0.0499 -4.834,-2.8033 -11.956,-2.8033c-10.697,0 -16.594,5.7146 -16.594,11.4679c0,5.7564 4.321,9.1459 16.986,11.788c6.304,1.3119 10.062,2.7391 10.454,6.052c0.391,3.3129 -3.087,6.2182 -8.769,6.2182c-12.596,0 -16.124,-12.2069 -16.124,-12.2069l-2.827,0l0,13.8909l2.913,0c0,-1.7859 2.772,-2.7371 5.336,-1.6586c2.876,1.211 6.258,2.421 10.714,2.421c9.083,0 18.425,-4.5229 18.425,-11.7859c0,-8.1559 -8.459,-10.4496 -19.403,-12.4883zm-45.277,4.0143l-4.443,0l0,-11.0857c0,0 -0.523,-3.5688 5.031,-3.5688c5.553,0 8.232,3.5668 8.232,7.4547c0,6.741 -7.644,7.1998 -8.82,7.1998zm-57.3635,4.6239l6.0109,-10.997l6.3702,10.997l-12.3811,0zm80.8845,6.8441c0,1.4657 -0.653,3.8867 -2.549,3.8867c-3.331,0 -2.427,-2.7472 -6.01,-8.1549c-2.975,-4.4913 -8.886,-5.4792 -11.107,-5.6066c3.985,-0.3191 17.575,-0.1916 17.575,-9.1121c0,-8.9195 -13.655,-9.365 -17.38,-9.365l-27.613,0l0,2.0184l3.703,0c4.695,0 4.267,3.16 4.267,3.16l0,24.1927c0,3.6952 -1.062,5.0551 -4.133,5.0551l-2.553,0c-3.202,0 -5.292,-4.2263 -5.292,-4.2263l-17.9665,-31.0286l-3.6472,0c0,0 -15.192,27.1437 -17.2596,30.7738c-2.0687,3.6299 -5.1619,4.4811 -7.1553,4.4811c-1.0549,0 0,0 0,0l-1.6653,0c-4.4856,0 -4.1572,-4.736 -4.1572,-4.736l0,-23.735c0,-4.1213 4.2231,-3.9368 4.2231,-3.9368l2.606,0l0,-2.0184l-20.5075,0l-10.3007,24.783l-10.0187,-24.783l-20.42279,0l0,2.0184l2.61444,0c3.3179,0 3.82694,2.525 3.82694,3.1498l0,24.522c0,4.4118 -6.79469,4.736 -6.79469,4.736l0,1.8644l18.0322,0l0,-1.8644c-7.6436,0 -7.4209,-4.736 -7.4209,-4.736l0,-26.1866l13.2758,32.787l6.1017,0l13.6249,-32.4659l0,25.8655c0,3.1397 -1.016,4.736 -4.4133,4.736l-2.0376,0l0,1.8644l42.4138,0l0,-1.8644l-3.4622,0c-5.8153,0 -3.7109,-4.5984 -3.7109,-4.5984l2.7304,-5.5536l15.6801,0l3.6922,6.3283c0,0 2.2861,3.8237 -2.5161,3.8237l-3.8543,0l0,1.8644l48.6952,0l0,-1.8644l-2.505,0c-4.704,0 -4.573,-3.5892 -4.573,-4.736l0,-10.7412c3.157,0 8.22,0.1275 8.821,6.5363c0.595,6.4087 1.017,11.5953 11.172,11.5953c7.505,0 10.845,-3.3772 10.845,-8.7287l-2.874,0z" clip-rule="evenodd" fill-rule="evenodd"/>
  <path id="svg_17" fill="#001543" d="m713.798,44.538882c3.048,0 6.105,-2.451 6.105,-6.044c0,-3.5927 -3.057,-5.4576 -6.105,-5.4576c-3.215,0 -5.43,2.509 -5.43,5.7511c0,3.2416 2.215,5.7505 5.43,5.7505zm-98.529,-15.6984l-14.796,19.7109l-7.399,0l21.138,-28.1584l7.399,0l-5.285,7.0396l5.285,0l0,21.1188l-6.342,0l0,-19.7109zm99.643,-0.4022c8.162,0 10.275,7.0395 10.275,10.3501c0,4.7347 -4.611,10.1049 -10.275,10.1049c-2.339,0 -4.777,-0.8916 -6.544,-2.6343l0,10.3551l-5.376,0l0,-28.1758l5.376,0l0,2.8802c1.767,-1.7432 4.205,-2.8802 6.544,-2.8802zm-73.22,3.017l0,-3.017l5.284,0l0,20.1131l-5.284,0l0,-2.0113c-1.767,1.7426 -3.969,2.3532 -6.308,2.3532c-5.664,0 -9.808,-4.0771 -9.808,-10.1049c0,-6.0275 4.144,-10.1046 9.808,-10.1046c2.339,0 4.541,1.0282 6.308,2.7715zm-10.579,7.3331c0,3.593 2.337,5.7505 5.386,5.7505c3.213,0 5.428,-2.5072 5.429,-5.7533c-0.001,-3.2404 -2.216,-5.7483 -5.429,-5.7483c-3.049,0 -5.386,2.1584 -5.386,5.7511zm38.577,-13.7485c-2.868,1.508 -7.393,1.2741 -10.361,3.2774c-1.364,0.9557 -2.093,2.1688 -2.474,3.8537c1.646,-1.4153 3.706,-2.2245 5.912,-2.2309c5.974,0.0109 10.122,3.9355 10.122,9.4678c0,5.5654 -4.027,10.1491 -10.694,10.1491c-6.459,0 -10.78,-4.2787 -10.78,-12.3207c0,-6.7235 1.077,-9.7133 4.388,-12.5366c2.813,-2.3999 6.956,-2.3782 9.921,-3.4524c2.418,-0.8761 3.447,-2.8656 3.447,-2.8656l4.228,2.0113c0,0 0.013,2.7124 -3.709,4.6469zm-2.336,14.368c0,-2.9632 -1.936,-5.1247 -5.159,-5.1311c-3.055,0.0055 -5.074,2.054 -5.179,4.8949c0.102,3.2295 1.898,5.2278 4.849,5.3602c0.104,0.0046 0.21,0.0069 0.318,0.0069c3.102,0 5.171,-2.1644 5.171,-5.1309zm101.167,-2.9244l0,-8.0452l5.284,0l0,20.1131l-5.284,0l0,-8.0453l-8.456,0l0,8.0453l-5.284,0l0,-20.1131l5.284,0l0,8.0452l8.456,0zm27.479,-8.0452l0,4.0226l-6.341,0l0,16.0905l-5.285,0l0,-16.0905l-6.341,0l0,-4.0226l17.967,0zm-52.845,0l5.284,0l0,20.1131l-5.284,0l0,-12.0679l-8.456,12.0679l-5.284,0l0,-20.1131l5.284,0l0,12.0678l8.456,-12.0678zm-51.789,0l5.285,0l0,20.1131l-5.285,0l0,-12.0679l-8.455,12.0679l-5.284,0l0,-20.1131l5.284,0l0,12.0678l8.455,-12.0678z"/>
  <path id="svg_18" fill="#001543" d="m1041.222512,41.96088c0,-12.592 4.905,-20.642 14.393,-20.642c3.617,0 5.708,0.957 7.477,2.072l-0.885,5.898c-1.688,-1.435 -4.1,-2.789 -6.673,-2.789c-4.502,0 -7.718,5.02 -7.718,15.143c0,10.041 2.411,15.78 7.477,15.78c3.055,0 5.387,-1.196 6.834,-2.471l1.447,4.622c-2.171,1.834 -4.744,3.029 -8.442,3.029c-8.684,0 -13.91,-6.934 -13.91,-20.642zm-18.332,0.08l0,20.004l-6.271,0l0,-40.168l6.271,0l0,18.57l9.729,-18.57l6.352,0l-10.05,18.889l11.497,21.279l-6.834,0l-10.694,-20.004zm-22.593,20.562c-8.3615,0 -13.5078,-6.615 -13.5078,-18.968c0,-12.911 3.6182,-22.316 12.2218,-22.316c6.754,0 11.176,5.021 11.176,18.65l0,3.427l-16.885,0c0,9.085 2.573,13.868 7.558,13.868c3.538,0 6.352,-1.595 7.96,-2.711l1.447,4.782c-2.573,1.993 -5.95,3.268 -9.97,3.268zm-6.915,-24.308l10.372,0c0,-6.854 -1.126,-11.875 -4.743,-11.875c-3.86,0 -5.227,4.702 -5.629,11.875zm-10.372,31.64l-5.6282,0l0,-7.89l-17.3673,0l0,7.89l-5.6282,0l0,-12.991l2.493,0c3.6982,-8.527 4.1002,-20.961 4.1002,-31.64l0,-3.427l18.8147,0l0,35.067l3.2158,0l0,12.991zm-9.4069,-43.037l-6.9952,0l0,0.717c0,8.448 -0.4022,20.802 -3.7787,29.329l10.7739,0l0,-30.046zm-22.8346,-5.021l0,40.168l-6.1911,0l0,-18.012l-9.3269,0l0,18.012l-6.2712,0l0,-40.168l6.2712,0l0,17.055l9.3269,0l0,-17.055l6.1911,0zm-41.1663,18.331l-9.80951,21.837l-7.15569,0l10.774,-23.352c-5.06534,-2.55 -8.4424,-7.173 -8.4424,-15.7c0,-11.955 7.63822,-17.932 16.724,-17.932l9.2459,0l0,56.984l-6.1907,0l0,-21.837l-5.1456,0zm5.1456,-29.967l-3.2966,0c-4.9849,0 -9.80941,3.268 -9.80941,12.752c0,9.165 4.42241,12.114 9.80941,12.114l3.2966,0l0,-24.866z" clip-rule="evenodd" fill-rule="evenodd"/>
  <path id="svg_23" fill="#001543" d="m344.368968,121.557581c0.34,-0.059 0.906,-0.299 1.095,0.098c0.152,0.484 0.008,0.992 -0.084,1.472c-2.291,9.854 -4.566,19.712 -6.853,29.565c-0.135,0.613 -0.319,1.23 -0.282,1.861c0.014,0.178 0.075,0.425 0.304,0.46c0.312,-0.006 0.594,-0.148 0.868,-0.269c1.382,-0.671 2.595,-1.591 3.722,-2.576c0.289,0.391 0.581,0.78 0.874,1.169c-1.507,1.616 -3.251,3.054 -5.2,4.214c-0.925,0.523 -1.89,1.025 -2.953,1.266c-0.427,0.069 -0.951,0.136 -1.295,-0.165c-0.489,-0.389 -0.579,-1.019 -0.644,-1.574c-0.092,-1.49 0.195,-2.97 0.524,-4.421c1.979,-8.48 3.954,-16.96 5.872,-25.451c0.121,-0.586 0.325,-1.181 0.22,-1.78c-0.084,-0.434 -0.551,-0.704 -1,-0.757c-1.025,-0.158 -2.07,-0.075 -3.103,-0.15c0.077,-0.424 0.154,-0.847 0.234,-1.271c2.634,-0.272 5.186,-0.951 7.701,-1.691zm118.354,2.704c3.8,-0.387 7.601,-0.9 11.299,-1.808c0.005,10.09 -0.001,20.18 0.004,30.269c0.048,0.702 0.025,1.651 0.833,2.012c0.924,0.343 1.949,0.294 2.922,0.438c-0.002,0.544 -0.002,1.091 -0.003,1.635c-3.817,0.461 -7.636,1.012 -11.346,1.972c-0.004,-0.903 -0.002,-1.808 -0.002,-2.713c-1.145,0.65 -2.292,1.3 -3.438,1.947c-0.865,0.49 -1.871,0.783 -2.893,0.758c-3.793,-0.039 -7.494,-1.935 -9.535,-4.857c-1.587,-2.229 -9.146,-4.981 -1.868,-7.604c7.278,-2.623 1.724,-5.446 3.904,-7.405c2.657,-2.454 6.354,-3.857 10.1,-4.102c1.25,-0.133 2.501,0 3.733,0.198c-0.015,-2.234 0.012,-4.469 -0.012,-6.704c-0.033,-0.706 -0.101,-1.587 -0.861,-1.974c-0.873,-0.409 -1.884,-0.418 -2.837,-0.539c-0.01,-0.506 -0.012,-1.015 0,-1.523zm-2.771,13.729c-1.615,1.31 -2.325,3.283 -2.648,5.178c-0.363,2.411 -0.378,4.941 0.55,7.253c0.688,1.697 1.963,3.283 3.791,4.065c1.5,0.682 3.361,0.563 4.788,-0.224c-0.022,-4.897 0.03,-9.795 -0.026,-14.691c-0.496,-1.196 -1.551,-2.298 -2.96,-2.589c-1.26,-0.284 -2.56,0.258 -3.495,1.008zm-86.406,-1.385c3.51,-0.389 6.98,-1.052 10.391,-1.9c0.002,1.229 -0.002,2.457 0,3.685c1.875,-1.118 3.685,-2.363 5.772,-3.136c1.986,-0.74 4.332,-0.673 6.23,0.257c1.392,0.674 2.462,1.819 3.098,3.127c1.339,-0.826 2.694,-1.63 4.067,-2.409c1.367,-0.767 2.885,-1.422 4.514,-1.474c1.645,-0.033 3.361,0.274 4.723,1.16c1.287,0.806 2.121,2.098 2.547,3.449c0.514,1.561 0.482,3.206 0.469,4.819c0.002,3.203 -0.003,6.408 0.003,9.611c0.05,0.718 0.017,1.581 0.658,2.099c0.739,0.478 1.687,0.495 2.552,0.626c0,0.54 0,1.08 0,1.621c-4.548,0 -9.096,0.001 -13.644,0c-0.002,-0.541 -0.002,-1.081 0,-1.619c0.816,-0.118 1.804,-0.104 2.373,-0.744c0.437,-0.622 0.425,-1.404 0.462,-2.119c0.002,-3.519 0.003,-7.038 0,-10.557c-0.05,-1.233 -0.319,-2.576 -1.318,-3.478c-0.895,-0.831 -2.279,-0.978 -3.485,-0.811c-1.279,0.155 -2.399,0.808 -3.373,1.544c0.06,0.609 0.126,1.217 0.126,1.829c-0.003,3.617 0.002,7.232 -0.003,10.849c0.037,0.868 -0.058,1.81 0.391,2.606c0.537,0.763 1.659,0.731 2.531,0.885c0,0.539 0,1.076 -0.001,1.615c-4.463,0 -8.928,0.001 -13.391,0c-0.003,-0.541 -0.003,-1.081 -0.002,-1.621c0.798,-0.127 1.718,-0.11 2.352,-0.638c0.504,-0.517 0.486,-1.273 0.527,-1.926c0.002,-3.668 0,-7.338 0,-11.007c-0.038,-1.167 -0.34,-2.414 -1.251,-3.282c-0.832,-0.775 -2.098,-1.001 -3.242,-0.882c-1.346,0.122 -2.563,0.754 -3.603,1.512c0.003,4.448 0,8.897 0.002,13.343c0.036,0.71 0.023,1.482 0.44,2.109c0.493,0.612 1.401,0.637 2.145,0.773c0.002,0.54 0.002,1.078 0,1.619c-4.63,-0.002 -9.262,0.001 -13.893,0c-0.002,-0.542 -0.002,-1.082 0.001,-1.623c1.01,-0.115 2.117,-0.097 2.995,-0.63c0.674,-0.49 0.661,-1.369 0.714,-2.083c0.007,-4.384 0.005,-8.768 0,-13.152c-0.043,-0.684 -0.03,-1.505 -0.658,-1.985c-0.64,-0.437 -1.463,-0.519 -2.218,-0.686c0,-0.459 0,-0.917 -0.001,-1.376zm57.206,-1.778c2.849,-0.271 5.822,0.197 8.316,1.515c2.411,1.261 4.297,3.316 5.279,5.689c1.036,2.442 1.051,5.163 0.45,7.699c-0.561,2.336 -1.874,4.541 -3.857,6.121c-2.34,1.903 -5.483,2.869 -8.592,2.914c-3.081,0.07 -6.264,-0.616 -8.756,-2.33c-2.175,-1.463 -3.734,-3.639 -4.43,-6.017c-0.675,-2.22 -0.577,-4.595 0.036,-6.816c0.734,-2.601 2.49,-4.945 4.895,-6.489c1.951,-1.276 4.277,-2.049 6.659,-2.286zm0.154,1.97c-0.76,0.142 -1.401,0.606 -1.868,1.154c-0.9,1.097 -1.345,2.444 -1.617,3.777c-0.421,2.173 -0.407,4.399 -0.194,6.592c0.196,1.834 0.561,3.677 1.367,5.378c0.508,1.026 1.197,2.053 2.282,2.642c1.118,0.629 2.689,0.591 3.698,-0.206c0.755,-0.596 1.189,-1.454 1.484,-2.308c0.519,-1.548 0.658,-3.174 0.731,-4.783c0.062,-2.095 -0.013,-4.204 -0.417,-6.27c-0.351,-1.656 -0.863,-3.366 -2.058,-4.691c-0.801,-0.911 -2.12,-1.514 -3.408,-1.285zm58.818,-1.805c1.792,-0.461 3.718,-0.174 5.42,0.444c1.504,0.586 2.914,1.518 3.706,2.855c0.722,1.184 0.94,2.562 0.963,3.899c-0.006,3.055 0.002,6.11 -0.004,9.165c0,0.791 0.018,1.615 0.374,2.35c0.223,0.485 0.711,0.867 1.288,0.946c0.737,0.078 1.468,-0.104 2.168,-0.293c0.196,0.539 0.381,1.082 0.577,1.622c-2.053,0.895 -4.119,1.763 -6.172,2.652c-0.355,0.19 -0.772,0.136 -1.158,0.095c-1.764,-0.185 -3.38,-1.279 -4.103,-2.757c-1.716,1.013 -3.405,2.148 -5.378,2.705c-3.652,0.533 -7.619,-1.712 -8.476,-5.055c-0.395,-1.679 -0.137,-3.652 1.299,-4.876c1.602,-1.373 3.832,-1.772 5.83,-2.452c2.161,-0.72 4.432,-1.296 6.366,-2.471c-0.03,-1.443 0.152,-2.936 -0.369,-4.329c-0.301,-0.836 -0.895,-1.622 -1.767,-2.028c-0.987,-0.439 -2.292,-0.319 -3.07,0.421c-1.125,0.991 -1.479,2.446 -1.876,3.774c-0.179,0.639 -0.593,1.308 -1.332,1.505c-1.15,0.308 -2.397,-0.011 -3.412,-0.537c-0.799,-0.434 -1.58,-1.206 -1.382,-2.125c0.224,-0.927 1.124,-1.535 1.935,-2.043c2.652,-1.524 5.516,-2.799 8.573,-3.467zm-0.804,12.699c-0.813,0.431 -1.627,0.971 -2.014,1.783c-0.467,1.046 -0.426,2.278 0.1,3.302c0.639,1.282 2.185,2.212 3.749,2.022c0.627,-0.055 1.187,-0.344 1.675,-0.698c-0.012,-2.724 0.002,-5.447 -0.008,-8.173c-1.174,0.575 -2.34,1.168 -3.502,1.764zm-135.214,-9.319c2.426,-1.633 5.241,-2.872 8.243,-3.264c1.938,-0.249 3.892,0.069 5.787,0.441c0.494,0.114 1.046,0.049 1.492,0.308c-1.559,5.639 -2.809,11.347 -3.971,17.065c-0.115,0.661 -0.324,1.363 -0.038,2.012c0.614,-0.094 1.131,-0.425 1.635,-0.736c0.935,-0.591 1.803,-1.265 2.614,-1.991c0.234,0.428 0.469,0.856 0.703,1.286c-1.663,1.869 -3.665,3.513 -5.985,4.673c-0.805,0.366 -1.668,0.785 -2.596,0.689c-0.611,-0.055 -0.923,-0.621 -1.003,-1.117c-0.16,-1.001 -0.005,-2.017 0.18,-3.007c0.364,-1.787 0.838,-3.554 1.194,-5.343c-1.891,2.368 -4.033,4.577 -6.464,6.493c-1.464,1.151 -3.026,2.291 -4.896,2.825c-0.898,0.261 -1.988,0.271 -2.709,-0.365c-1.347,-1.146 -1.699,-2.922 -1.817,-4.528c-0.171,-3.465 0.794,-6.946 2.575,-9.996c1.237,-2.115 2.923,-4.033 5.056,-5.445zm3.478,-0.192c-2.076,1.283 -3.455,3.302 -4.446,5.365c-1.305,2.8 -1.985,5.849 -1.95,8.894c0.054,0.966 0.139,2.028 0.838,2.804c0.447,0.484 1.168,0.251 1.674,-0.012c1.315,-0.682 2.419,-1.65 3.487,-2.615c1.929,-1.824 3.71,-3.789 5.2,-5.933c0.328,-0.51 0.716,-1.005 0.878,-1.584c0.658,-2.355 1.207,-4.736 1.765,-7.111c-2.349,-0.901 -5.208,-1.038 -7.446,0.192z"/>
  <path id="svg_46" fill="#001543" d="m340.887,200.239024c1.095,-3.151 2.68,-6.109 4.467,-8.915c2.68,4.094 4.824,8.608 5.69,13.456c2.051,9.558 -0.047,19.954 -5.678,27.929c-6.596,-9.263 -8.151,-21.749 -4.479,-32.47zm-0.06,8.068c-0.561,3.604 -0.246,7.262 0.169,10.864c0.182,-3.006 0.214,-6.052 0.977,-8.983c0.784,-3.095 1.811,-6.154 3.342,-8.962c1.348,2.286 2.221,4.821 2.987,7.352c1.053,3.375 1.249,6.932 1.442,10.441c0.333,-3.059 0.698,-6.148 0.306,-9.219c-0.365,-5.292 -2.119,-10.396 -4.711,-14.993c-2.235,4.201 -3.924,8.753 -4.512,13.5zm4.542,22.655c2.315,-4.549 2.205,-10.116 0,-14.683c-2.345,4.537 -2.324,10.143 0,14.683zm-28.476,-6.535c3.551,-7.796 11.844,-13.172 20.411,-12.966c-0.009,5.655 -0.021,11.308 0.006,16.961c-3.153,0.036 -6.308,1.216 -8.597,3.414c-2.451,2.286 -3.906,5.587 -4.001,8.941c-0.053,3.831 1.722,7.659 4.729,10.035c2.962,2.418 7.064,3.322 10.763,2.4c2.413,-0.605 4.663,-1.911 6.317,-3.783c1.62,-1.89 1.911,-4.794 0.691,-6.965c-1.252,-2.432 -4.242,-3.822 -6.892,-3.133c-1.197,0.238 -2.197,0.981 -3.135,1.723c0.015,-2.391 -0.009,-4.782 0.012,-7.173c5.462,-0.003 10.923,0.006 16.385,-0.003c0.253,4.484 0.042,8.983 0.122,13.476c-0.062,0.841 0.22,1.887 -0.51,2.51c-3.381,3.39 -7.849,5.718 -12.592,6.371c-4.868,0.758 -9.986,-0.149 -14.281,-2.578c-4.628,-2.57 -8.294,-6.849 -10.128,-11.828c-2.057,-5.59 -1.832,-12.006 0.7,-17.402zm39.512,32.104c0.009,-7.552 -0.023,-15.101 0.015,-22.653c2.879,0.012 5.759,-0.012 8.641,0.015c0.006,0.972 0.006,1.944 0.006,2.916c-1.357,-0.003 -2.716,0 -4.07,-0.006c-0.003,6.577 0.003,13.154 -0.003,19.731c-1.531,-0.009 -3.06,-0.006 -4.589,-0.003zm11.01,-22.65c2.366,0 4.731,0 7.097,0c0.849,7.543 1.565,15.101 2.399,22.644c-1.514,0.003 -3.028,0.009 -4.539,-0.003c-0.148,-1.998 -0.22,-4.001 -0.413,-5.993c-0.679,0.006 -1.356,0.009 -2.033,0.015c-0.056,2 -0.261,3.992 -0.38,5.99c-1.511,-0.012 -3.022,-0.003 -4.53,-0.012c0.855,-7.54 1.529,-15.101 2.399,-22.641zm2.692,14.15c0.505,-0.155 1.829,0.298 1.671,-0.626c-0.365,-3.593 -0.377,-7.218 -0.843,-10.799c-0.365,3.798 -0.528,7.617 -0.828,11.425zm8.757,-11.819c0.214,-1.171 1.202,-2.143 2.404,-2.233c1.766,-0.164 3.565,-0.167 5.334,-0.003c1.351,0.093 2.384,1.312 2.488,2.627c0.145,1.687 0.044,3.387 0.071,5.08c0.059,1.145 -0.534,2.382 -1.653,2.788c-0.532,0.128 -1.072,0.155 -1.609,0.194c1.217,0.116 2.728,0.474 3.102,1.833c0.347,1.646 0.074,3.354 0.163,5.027c-0.006,1.485 0.169,3.354 -1.158,4.368c-1.561,1.022 -3.532,0.512 -5.283,0.641c-1.455,0.113 -3.26,-0.319 -3.74,-1.9c-0.523,-1.97 -0.202,-4.045 -0.285,-6.061c1.528,0.012 3.057,0.009 4.586,0.003c0.035,1.47 -0.08,2.949 0.05,4.416c0.116,0.73 1.06,0.68 1.232,0.009c0.14,-1.58 0.024,-3.173 0.065,-4.759c-0.017,-0.644 0.045,-1.526 -0.635,-1.863c-0.947,-0.37 -1.989,-0.259 -2.974,-0.2c-0.018,-0.87 -0.024,-1.738 -0.024,-2.605c1.122,0.014 2.262,0.041 3.363,-0.236c0.437,-1.822 0.238,-3.712 0.253,-5.566c0.077,-0.591 -0.422,-1.133 -1.021,-0.954c-0.612,1.377 -0.19,2.954 -0.303,4.412c-1.532,-0.003 -3.064,-0.003 -4.592,0.003c0.038,-1.672 -0.137,-3.366 0.166,-5.021zm13.028,-2.334c3.458,0.003 6.916,0.006 10.374,0c0.265,3.199 0.018,6.41 0.042,9.612c0.211,2.668 -0.137,5.34 0.027,8.008c0.113,1.679 -0.03,3.36 -0.057,5.039c-1.513,-0.015 -3.027,-0.015 -4.541,0.003c-0.006,-6.58 0,-13.16 -0.003,-19.74c-0.431,0 -0.855,0.003 -1.28,0.006c0.012,6.571 0,13.142 0.006,19.713c-1.525,0.018 -3.048,0.003 -4.571,0.015c0,-7.552 -0.006,-15.104 0.003,-22.656zm13.138,0c2.268,0.015 4.533,-0.012 6.8,0.003c1.019,0.018 2.164,0.206 2.844,1.052c0.745,0.972 0.79,2.272 0.802,3.447c-0.03,2.304 0.02,4.609 -0.021,6.914c-0.03,1.347 -0.552,2.927 -1.965,3.369c-1.291,0.292 -2.633,0.104 -3.942,0.149c0,2.57 0,5.143 0.003,7.713c-1.523,0.006 -3.046,0.003 -4.566,0.003c0.03,-7.549 -0.059,-15.101 0.045,-22.65zm4.515,2.928c0.03,3.205 -0.039,6.41 0.035,9.615c0.431,-0.218 1.2,-0.254 1.226,-0.889c0.107,-1.78 0,-3.565 0.042,-5.345c-0.027,-1.13 0.157,-2.317 -0.344,-3.372c-0.241,-0.003 -0.722,-0.006 -0.959,-0.009zm9.864,-2.678c1.392,-0.396 2.858,-0.211 4.286,-0.256c1.143,0.024 2.487,-0.018 3.339,0.888c0.811,0.776 0.891,1.977 0.894,3.036c-0.018,5.071 -0.003,10.142 -0.006,15.211c0.009,1.097 -0.291,2.322 -1.253,2.969c-1.142,0.748 -2.573,0.507 -3.862,0.558c-1.371,-0.054 -2.888,0.205 -4.096,-0.594c-1.119,-0.781 -1.19,-2.286 -1.258,-3.524c0.068,-3.071 -0.125,-6.144 0.035,-9.212c0.155,-2.409 -0.359,-4.86 0.232,-7.233c0.207,-0.853 0.858,-1.565 1.689,-1.843zm2.671,3.042c-0.021,4.883 0.009,9.767 -0.015,14.653c0.021,0.614 -0.115,1.333 0.455,1.759c0.448,-0.066 0.911,-0.325 0.81,-0.853c0.056,-4.472 -0.009,-8.947 0.03,-13.422c-0.015,-0.891 0.115,-1.851 -0.398,-2.641c-0.22,0.128 -0.662,0.378 -0.882,0.504zm8.329,-3.289c1.965,0 3.931,0.003 5.896,-0.006c1.003,5.194 1.974,10.393 2.876,15.605c0.991,-5.167 1.932,-10.346 2.879,-15.522c1.971,-0.143 3.948,-0.053 5.925,-0.08c0.045,7.552 0.003,15.101 0.021,22.65c-1.535,0 -3.069,-0.003 -4.601,0.003c-0.051,-4.735 0.095,-9.475 -0.071,-14.204c-0.707,4.744 -1.493,9.478 -2.307,14.207c-1.226,-0.009 -2.452,-0.003 -3.675,-0.012c-0.78,-4.776 -1.502,-9.565 -2.356,-14.329c-0.119,4.776 -0.009,9.558 -0.048,14.338c-1.517,-0.006 -3.034,-0.006 -4.544,0c0.002,-7.549 -0.015,-15.101 0.005,-22.65zm21.438,-0.036c1.535,-0.006 3.069,-0.003 4.604,-0.003c0.003,3.161 0,6.324 0,9.484c0.419,0 0.843,0 1.267,0.003c-0.006,-3.163 -0.006,-6.323 0,-9.487c1.535,0 3.073,0 4.61,0c0.003,7.561 0,15.125 0,22.689c-1.537,-0.006 -3.075,-0.003 -4.613,-0.003c0.003,-3.521 -0.006,-7.039 0.003,-10.56c-0.427,-0.003 -0.848,-0.003 -1.267,-0.003c0.003,3.524 0,7.045 0,10.566c-1.535,-0.006 -3.072,0.003 -4.607,-0.012c0.006,-7.558 0,-15.116 0.003,-22.674zm13.061,-0.006c3.039,0.003 6.079,0.006 9.119,0c0.002,0.895 0.002,1.792 0.002,2.686c-1.516,-0.014 -3.036,-0.005 -4.553,-0.014c0.003,2.271 0.006,4.543 0,6.815c1.398,-0.009 2.796,-0.006 4.197,-0.003c-0.003,0.882 -0.003,1.765 0,2.647c-1.401,0.003 -2.802,0.003 -4.2,0c0.009,2.669 0.009,5.34 0,8.011c1.588,-0.003 3.179,-0.003 4.77,0c-0.006,0.847 -0.003,1.697 -0.003,2.547c-3.111,0.003 -6.221,-0.009 -9.332,0.009c0,-7.567 -0.003,-15.131 0,-22.698zm16.635,0.006c1.529,-0.003 3.06,-0.003 4.594,-0.003c-0.005,0.495 -0.003,0.99 0.003,1.485c1.446,0.027 2.998,-0.203 4.355,0.432c1.268,0.662 1.54,2.224 1.537,3.53c-0.005,3.974 0.003,7.949 -0.002,11.923c0.012,1.371 -0.416,3.059 -1.87,3.533c-1.304,0.37 -2.689,0.104 -4.026,0.17c-0.002,0.536 0.003,1.073 0.01,1.61c-1.539,0.006 -3.072,0.006 -4.608,0c-0.003,-0.537 0,-1.074 0.007,-1.607c-1.261,-0.03 -2.536,0.113 -3.782,-0.093c-1.467,-0.328 -2.114,-1.926 -2.078,-3.297c-0.021,-4.177 -0.009,-8.357 -0.006,-12.534c-0.039,-1.291 0.407,-2.797 1.692,-3.342c1.333,-0.483 2.779,-0.31 4.167,-0.328c-0.003,-0.495 -0.003,-0.987 0.007,-1.479zm-1.304,4.884c-0.053,3.762 0.006,7.531 -0.027,11.296c0.007,0.719 -0.041,1.452 0.141,2.159c0.376,0.119 0.766,0.208 1.154,0.313c0.047,-4.896 0.056,-9.791 -0.005,-14.684c-0.476,0.194 -1.361,0.194 -1.263,0.916zm5.928,13.786c0.374,-0.123 0.761,-0.23 1.137,-0.376c0.264,-0.978 0.145,-2.006 0.169,-3.005c-0.042,-3.465 0.066,-6.932 -0.047,-10.393c0.075,-0.695 -0.814,-0.701 -1.238,-0.975c-0.092,4.916 -0.051,9.835 -0.021,14.749zm6.641,-18.67c3.333,-0.009 6.669,0.003 10.005,-0.006c0,0.895 0.004,1.792 0.004,2.686c-0.888,-0.005 -1.773,-0.011 -2.655,-0.014c0.003,6.672 0,13.344 0.003,20.02c-1.533,-0.006 -3.068,-0.003 -4.6,0c-0.004,-6.673 0,-13.342 0,-20.014c-0.923,0.003 -1.844,-0.003 -2.76,-0.009c-0.004,-0.889 0,-1.774 0.003,-2.663zm11.995,-0.006c1.52,0.003 3.042,0.006 4.564,0c0.013,2.806 -0.002,5.611 0.01,8.42c1.481,0.056 3.102,-0.292 4.475,0.42c1.2,0.656 1.372,2.156 1.423,3.384c0.065,2.096 0.035,4.198 0.018,6.297c-0.087,1.159 -0.069,2.525 -1.01,3.363c-0.715,0.694 -1.766,0.799 -2.709,0.805c-2.26,0.009 -4.518,-0.009 -6.775,0.003c0.004,-7.564 -0.008,-15.128 0.004,-22.692zm4.607,10.79c-0.074,3.142 -0.03,6.288 -0.028,9.43c0.383,-0.125 0.772,-0.247 1.164,-0.373c0.259,-1.92 0.029,-3.855 0.089,-5.781c-0.02,-0.918 0.089,-1.854 -0.131,-2.751c-0.335,-0.245 -0.7,-0.418 -1.094,-0.525z"/>
  <path id="svg_63" fill="#001543" d="m655.784865,156.773932c-2.677,-0.364 -5.02,-1.42 -6.808,-3.07c-1.492,-1.377 -2.46,-2.891 -3.173,-4.966c-1.113,-3.239 -1.113,-7.404 -0.001,-10.577c1.079,-3.075 3.506,-5.752 6.478,-7.141c4.115,-1.925 9.907,-1.804 13.718,0.286c3.43,1.881 5.508,5.223 6.086,9.789c0.176,1.395 0.062,4.34 -0.216,5.555c-1.138,4.976 -4.451,8.451 -9.306,9.761c-0.523,0.141 -1.334,0.306 -1.803,0.367c-0.991,0.129 -4.015,0.126 -4.975,-0.004zm4.007,-1.998c0.782,-0.217 1.747,-1.06 2.262,-1.976c1.062,-1.893 1.536,-4.691 1.548,-9.134c0.014,-5.568 -0.922,-9.112 -2.9,-10.967c-0.83,-0.779 -1.419,-1.021 -2.481,-1.019c-2.357,0.003 -3.852,2.295 -4.443,6.808c-0.272,2.075 -0.273,7.017 -0.003,8.831c0.838,5.613 2.999,8.292 6.017,7.457zm43.426,1.997c-1.095,-0.104 -4.444,-0.623 -5.613,-0.871l-0.809,-0.171l0.063,-4.026c0.152,-9.693 0.171,-14.984 0.072,-20.129c-0.096,-5.041 -0.124,-5.574 -0.333,-6.32c-0.264,-0.944 -0.645,-1.603 -1.104,-1.908c-0.179,-0.118 -0.663,-0.286 -1.077,-0.372c-1.375,-0.288 -1.3,-0.242 -1.337,-0.826c-0.021,-0.337 0.018,-0.56 0.11,-0.628c0.124,-0.091 11.404,-2.096 11.763,-2.09c0.103,0.001 0.118,1.345 0.065,5.97c-0.038,3.282 -0.043,5.968 -0.011,5.968c0.032,0 0.444,-0.166 0.916,-0.37c1.423,-0.612 2.735,-0.878 4.64,-0.94c1.268,-0.041 1.855,-0.015 2.506,0.11c4.255,0.82 7.403,4.065 8.503,8.763c0.288,1.225 0.394,4.271 0.204,5.797c-0.163,1.3 -0.626,3.052 -1.108,4.189c-1.82,4.29 -5.724,7.089 -10.903,7.817c-1.193,0.167 -4.94,0.188 -6.547,0.037zm4.427,-2.047c0.802,-0.142 1.425,-0.439 2.094,-1c1.678,-1.405 2.939,-4.305 3.435,-7.899c0.202,-1.464 0.175,-4.799 -0.049,-6.021c-0.606,-3.304 -1.907,-5.475 -3.806,-6.35c-0.787,-0.363 -0.909,-0.388 -1.843,-0.388c-0.668,0 -1.243,0.066 -1.731,0.201l-0.732,0.2l-0.054,3.761c-0.069,4.818 0.099,16.878 0.241,17.224c0.09,0.221 0.189,0.268 0.636,0.301c1.053,0.077 1.227,0.074 1.809,-0.029zm27.325,1.995c-5.479,-0.92 -9.397,-4.54 -10.678,-9.864c-0.164,-0.685 -0.237,-1.451 -0.278,-2.934c-0.066,-2.345 0.139,-3.8 0.789,-5.609c1.247,-3.473 3.482,-5.934 6.729,-7.409c3.428,-1.556 8.114,-1.658 11.147,-0.242c3.415,1.594 5.424,4.778 5.934,9.402c0.069,0.622 0.108,1.363 0.088,1.646l-0.036,0.515l-8.173,0.026l-8.172,0.026l0.031,0.9c0.072,2.084 0.553,3.928 1.443,5.53c0.404,0.729 0.726,1.126 1.508,1.861c1.766,1.662 3.523,2.305 6.295,2.305c2.01,0 3.455,-0.374 4.966,-1.284c0.424,-0.255 0.853,-0.464 0.954,-0.464c0.23,0 0.762,0.637 0.762,0.914c0,0.453 -1.585,1.916 -3.131,2.889c-1.265,0.796 -3.273,1.518 -5.014,1.801c-1.219,0.199 -3.957,0.194 -5.164,-0.009zm3.468,-16.772l1.922,-0.062l-0.07,-1.272c-0.244,-4.484 -1.421,-6.934 -3.332,-6.932c-2.076,0.002 -3.735,2.489 -4.425,6.633c-0.085,0.509 -0.155,1.113 -0.156,1.342l-0.002,0.416l2.071,-0.031c1.139,-0.017 2.935,-0.059 3.992,-0.094zm18.621,16.872c-1.968,-0.196 -5.1,-0.835 -6.142,-1.252l-0.509,-0.204l-0.07,-2.351c-0.038,-1.293 -0.082,-3.022 -0.098,-3.842l-0.028,-1.49l0.305,-0.137c0.168,-0.075 0.507,-0.145 0.753,-0.155l0.448,-0.02l0.381,0.875c1.488,3.412 3.233,5.252 5.512,5.811c0.87,0.214 2.5,0.216 3.144,0.004c1.803,-0.593 2.792,-1.865 2.8,-3.603c0.011,-2.058 -1.204,-3.046 -5.79,-4.716c-2.842,-1.034 -3.833,-1.566 -5.013,-2.692c-1.274,-1.214 -1.885,-2.596 -2,-4.521c-0.138,-2.326 0.643,-4.287 2.375,-5.958c1.742,-1.682 4.004,-2.593 7.086,-2.855c2.713,-0.231 6.879,0.305 9.061,1.166l0.398,0.157l0.071,2.095c0.039,1.153 0.08,2.697 0.09,3.433l0.019,1.338l-0.535,0.185c-0.845,0.292 -0.901,0.256 -1.371,-0.905c-1.318,-3.254 -2.85,-4.794 -5.236,-5.264c-1.454,-0.287 -2.669,0.021 -3.552,0.901c-0.689,0.686 -0.958,1.295 -1.023,2.318c-0.071,1.109 0.142,1.708 0.869,2.449c0.896,0.914 2.364,1.703 5.289,2.841c3.582,1.395 5.291,2.579 6.22,4.309c0.603,1.124 0.774,2.021 0.714,3.749c-0.046,1.296 -0.091,1.563 -0.407,2.433c-1.032,2.838 -3.362,4.707 -6.962,5.583c-1.219,0.296 -1.393,0.312 -3.817,0.336c-1.397,0.015 -2.739,0.007 -2.982,-0.018zm-119.443,-1.425c0,-0.311 -0.03,-0.566 -0.067,-0.566c-0.526,0 -2.978,-0.492 -3.372,-0.677c-1.403,-0.658 -2.051,-2.222 -2.303,-5.553c-0.178,-2.368 -0.356,-9.326 -0.241,-9.434c0.105,-0.097 4.774,0.076 5.32,0.198c1.509,0.336 2.672,1.719 3.254,3.869l0.257,0.948l0.674,0.03l0.674,0.031l0,-5.973l0,-5.973l-0.717,0c-0.672,0 -0.719,0.015 -0.719,0.232c0,0.39 -0.418,1.623 -0.815,2.401c-0.621,1.219 -1.496,1.955 -2.608,2.194c-0.273,0.058 -1.564,0.152 -2.867,0.209c-1.839,0.079 -2.391,0.074 -2.46,-0.023c-0.128,-0.18 0.164,-13.727 0.309,-14.357l0.055,-0.237l4.055,0.032l4.055,0.031l0.944,0.315c2.186,0.729 3.759,2.218 5.073,4.803c0.295,0.581 0.673,1.426 0.84,1.879c0.168,0.453 0.316,0.838 0.329,0.855c0.014,0.018 0.377,-0.067 0.806,-0.189l0.782,-0.221l-0.055,-3.361c-0.03,-1.848 -0.084,-4.067 -0.119,-4.93l-0.064,-1.569l-15.4,0l-15.4,0l0.033,0.643l0.033,0.642l0.994,0.116c1.326,0.155 1.812,0.289 2.346,0.65c0.809,0.546 1.307,1.348 1.62,2.612c0.487,1.964 0.663,6.392 0.581,14.682c-0.085,8.759 -0.204,10.58 -0.803,12.347c-0.493,1.454 -1.411,2.224 -2.926,2.457c-0.417,0.064 -1.008,0.167 -1.313,0.228l-0.555,0.111l0,0.557l0,0.557l9.885,0l9.885,0l0,-0.566zm50.913,0.009l0,-0.557l-0.856,-0.067c-1.974,-0.156 -2.515,-0.34 -3.033,-1.036c-0.751,-1.008 -0.915,-2.868 -0.915,-10.405l0,-5.882l0.274,-0.272c0.345,-0.343 1.425,-0.821 2.189,-0.969c1.551,-0.301 3.533,-0.041 5.083,0.667c0.445,0.204 0.828,0.353 0.851,0.331c0.045,-0.042 2.592,-6.311 2.671,-6.576c0.035,-0.12 -0.111,-0.224 -0.54,-0.384c-0.916,-0.342 -1.711,-0.459 -2.737,-0.404c-2.743,0.149 -5.177,1.846 -6.93,4.834c-0.291,0.496 -0.593,0.902 -0.67,0.903c-0.113,0.001 -0.126,-0.569 -0.065,-2.835l0.075,-2.836l-0.266,0.059c-0.146,0.032 -2.354,0.448 -4.905,0.925c-5.472,1.024 -6.232,1.173 -6.362,1.248c-0.054,0.031 -0.099,0.215 -0.099,0.408c0,0.389 -0.048,0.366 1.195,0.553c1.709,0.256 2.313,1.032 2.568,3.302c0.332,2.959 0.199,14.496 -0.185,16.071c-0.197,0.805 -0.705,1.581 -1.216,1.856c-0.19,0.102 -0.786,0.266 -1.326,0.365l-0.98,0.178l-0.034,0.54l-0.033,0.54l8.123,0l8.123,0l0,-0.557z"/>
  <path id="svg_64" fill="#001543" d="m889.7758,186.677001c2.646,3.753 5.9479,6.483 9.9057,8.191c0,2.147 0.0028,4.221 0.0056,6.183l0,0.001l0,0l0,0.001l0,0l0,0.001l0,0l0,0l0,0.001l0,0c0.005,3.625 0.0095,6.872 -0.0056,9.506c-3.6367,0 -6.9387,-2.124 -9.9057,-6.372l0,-17.512zm-1.9838,21.605c4.5397,4.282 10.4831,6.731 17.8302,7.347l0,9.83c-4.7102,7.948 -10.6535,13.669 -17.8302,17.161c0.0426,-5.649 0.0261,-15.755 0.0119,-24.359l0,-0.001l0,-0.002l0,-0.001l0,-0.002l0,-0.002c-0.0062,-3.784 -0.0119,-7.276 -0.0119,-9.971zm-15.84926,46.338c20.15366,-7.981 33.36126,-18.191 39.62256,-30.629l0,37.314l-39.62256,0c0.15509,-1.24 0.15509,-3.469 0,-6.685zm38.29316,-36.52l5.2922,0l0,47.134l-47.54697,0l0,-47.134l15.26767,0l0,-1.964l-17.2488,0l0,51.062l51.5094,0l0,-51.062l-7.2735,0l0,1.964zm35.0065,17.996l-1.5946,0l0,-6.281l2.408,0c0.4567,0 0.8384,0.011 1.1452,0.032c0.3068,0.021 0.5672,0.074 0.7813,0.159c0.214,0.078 0.3995,0.195 0.5565,0.35c0.1641,0.149 0.3353,0.354 0.5137,0.616c0.1713,0.261 0.314,0.551 0.4281,0.87c0.1142,0.318 0.1962,0.675 0.2462,1.071l0.5031,0l-0.1178,-3.586l-10.7881,0l0,0.488l0.3853,0c0.321,0 0.5849,0.021 0.7919,0.064c0.207,0.035 0.3746,0.095 0.5031,0.18c0.1356,0.078 0.2355,0.177 0.2996,0.297c0.0642,0.12 0.1142,0.258 0.1498,0.414c0.0643,0.332 0.0964,1.1 0.0964,2.302l0,7.056c0,1.153 -0.0321,1.892 -0.0964,2.217c-0.0356,0.163 -0.082,0.3 -0.1391,0.414c-0.0499,0.113 -0.1427,0.205 -0.2782,0.276c-0.1284,0.07 -0.3069,0.12 -0.5352,0.148c-0.2283,0.028 -0.5316,0.043 -0.9097,0.043l-0.2675,0l0,0.488l1.8194,0.063c0.7349,0.028 1.3842,0.046 1.9479,0.053c0.5636,0.014 1.0488,0.021 1.4555,0.021c1.4984,0 2.6506,-0.116 3.4568,-0.35c0.4068,-0.113 0.7778,-0.275 1.1131,-0.488c0.3426,-0.212 0.6351,-0.463 0.8777,-0.753c0.2496,-0.297 0.4423,-0.633 0.5778,-1.008c0.1357,-0.382 0.2034,-0.796 0.2034,-1.241c0,-0.778 -0.1783,-1.468 -0.5352,-2.069c-0.3495,-0.608 -0.8562,-1.068 -1.5197,-1.379c-0.6635,-0.311 -1.8229,-0.467 -3.4783,-0.467zm-0.9204,7.076c-0.3353,-0.106 -0.56,-0.247 -0.6742,-0.424l0,-6.122l1.0381,0c0.8205,0 1.4948,0.082 2.0228,0.244c0.2568,0.085 0.4922,0.22 0.7064,0.404c0.2211,0.176 0.4102,0.396 0.5672,0.657c0.164,0.255 0.2926,0.549 0.3853,0.881c0.0928,0.332 0.1391,0.69 0.1391,1.071c0,0.595 -0.0678,1.111 -0.2034,1.549c-0.1355,0.432 -0.3317,0.789 -0.5887,1.072c-0.2496,0.276 -0.56,0.485 -0.931,0.626c-0.3639,0.134 -0.7778,0.202 -1.2415,0.202c-0.4709,0 -0.8775,-0.053 -1.2201,-0.16zm16.0744,-4.763l-5.5118,0l-0.3746,0.912c-0.5566,1.323 -0.8349,2.186 -0.8349,2.589c0,0.431 0.1463,0.76 0.4389,0.987c0.2997,0.219 0.6814,0.328 1.1452,0.328l0,0.489l-4.3131,0l0,-0.489c0.6421,-0.099 1.1201,-0.321 1.434,-0.668c0.314,-0.354 0.6922,-1.093 1.1346,-2.217c0.0356,-0.106 0.2068,-0.517 0.5137,-1.231l4.2167,-9.984l0.4174,0l4.8482,11.427l0.6637,1.506c0.1497,0.34 0.3495,0.609 0.5993,0.807c0.2569,0.191 0.6386,0.311 1.1452,0.36l0,0.489l-5.7045,0l0,-0.489c0.6992,0 1.1701,-0.049 1.4127,-0.148c0.2498,-0.106 0.3746,-0.311 0.3746,-0.615c0,-0.156 -0.164,-0.619 -0.4922,-1.39l-1.1131,-2.663zm-0.182,-0.478l-2.5686,-6.132l-2.5578,6.132l5.1264,0zm10.5756,-1.432l7.577,0l0,3.469c0,1.203 -0.032,1.97 -0.096,2.303c-0.065,0.325 -0.218,0.565 -0.461,0.721c-0.235,0.156 -0.66,0.234 -1.273,0.234l-0.503,0l0,0.488l6.603,0l0,-0.488l-0.331,0c-0.65,0 -1.092,-0.085 -1.328,-0.255c-0.235,-0.17 -0.381,-0.428 -0.438,-0.775c-0.05,-0.353 -0.075,-1.096 -0.075,-2.228l0,-7.055c0,-1.195 0.035,-1.952 0.107,-2.27c0.078,-0.319 0.228,-0.534 0.449,-0.647c0.221,-0.121 0.689,-0.181 1.402,-0.181l0.214,0l0,-0.488l-6.603,0l0,0.488l0.385,0c0.735,0 1.209,0.064 1.423,0.191c0.222,0.128 0.364,0.357 0.429,0.69c0.064,0.332 0.096,1.071 0.096,2.217l0,2.854l-7.577,0l0,-2.854c0,-1.195 0.035,-1.952 0.107,-2.27c0.078,-0.319 0.228,-0.534 0.449,-0.647c0.221,-0.121 0.685,-0.181 1.391,-0.181l0.268,0l0,-0.488l-6.529,0l0,0.488l0.268,0c0.735,0 1.209,0.064 1.423,0.191c0.222,0.128 0.364,0.357 0.429,0.69c0.071,0.332 0.106,1.071 0.106,2.217l0,7.055c0,1.203 -0.035,1.97 -0.106,2.303c-0.065,0.325 -0.218,0.565 -0.461,0.721c-0.235,0.156 -0.663,0.234 -1.284,0.234l-0.375,0l0,0.488l6.529,0l0,-0.488l-0.375,0c-0.649,0 -1.091,-0.085 -1.327,-0.255c-0.228,-0.17 -0.371,-0.428 -0.428,-0.775c-0.057,-0.353 -0.085,-1.096 -0.085,-2.228l0,-3.469zm29.047,7.215l-3.906,0c-0.357,-0.234 -0.796,-0.665 -1.317,-1.295c-0.521,-0.629 -1.141,-1.457 -1.862,-2.482l-0.482,-0.679c-0.185,-0.262 -0.381,-0.524 -0.588,-0.786c-0.207,-0.268 -0.418,-0.519 -0.632,-0.753c-0.214,-0.233 -0.417,-0.413 -0.61,-0.541c-0.242,-0.162 -0.481,-0.269 -0.717,-0.318c-0.235,-0.057 -0.51,-0.085 -0.824,-0.085l-0.503,0l0,3.194c0,0.572 0.007,1.043 0.021,1.411c0.015,0.367 0.036,0.64 0.065,0.816c0.028,0.177 0.075,0.329 0.139,0.457c0.064,0.127 0.16,0.233 0.289,0.318c0.135,0.085 0.31,0.148 0.524,0.191c0.214,0.042 0.486,0.064 0.814,0.064l0.278,0l0,0.488l-6.518,0l0,-0.488l0.45,0c0.321,0 0.585,-0.018 0.792,-0.054c0.206,-0.042 0.374,-0.102 0.503,-0.18c0.135,-0.085 0.235,-0.184 0.299,-0.297c0.064,-0.12 0.114,-0.262 0.15,-0.424c0.036,-0.163 0.061,-0.435 0.075,-0.817c0.021,-0.389 0.032,-0.884 0.032,-1.485l0,-7.056c0,-0.601 -0.011,-1.089 -0.032,-1.464c-0.021,-0.375 -0.05,-0.644 -0.086,-0.806c-0.035,-0.163 -0.082,-0.297 -0.139,-0.403c-0.057,-0.106 -0.153,-0.191 -0.289,-0.255c-0.135,-0.064 -0.328,-0.106 -0.578,-0.127c-0.242,-0.029 -0.57,-0.043 -0.984,-0.043l0,-0.488l6.421,0l0,0.488l-0.267,0c-0.364,0 -0.66,0.014 -0.889,0.043c-0.221,0.028 -0.399,0.074 -0.535,0.138c-0.128,0.063 -0.225,0.148 -0.289,0.254c-0.057,0.106 -0.103,0.237 -0.139,0.393c-0.071,0.304 -0.107,1.061 -0.107,2.27l0,3.31c0.186,-0.021 0.368,-0.049 0.546,-0.085c0.185,-0.042 0.374,-0.109 0.567,-0.201c0.2,-0.092 0.407,-0.216 0.621,-0.371c0.221,-0.163 0.464,-0.372 0.728,-0.626c0.264,-0.255 0.556,-0.566 0.877,-0.934c0.328,-0.368 0.692,-0.806 1.092,-1.316c0.257,-0.325 0.485,-0.611 0.685,-0.859c0.207,-0.247 0.4,-0.47 0.578,-0.668c0.178,-0.205 0.35,-0.389 0.514,-0.552c0.171,-0.17 0.349,-0.34 0.535,-0.509c0.321,-0.29 0.66,-0.527 1.016,-0.711c0.364,-0.184 0.703,-0.276 1.017,-0.276c0.3,0 0.528,0.064 0.685,0.191c0.157,0.12 0.236,0.301 0.236,0.541c0,0.191 -0.061,0.368 -0.182,0.531c-0.115,0.162 -0.336,0.3 -0.664,0.413c-0.228,0.078 -0.481,0.138 -0.76,0.181c-0.271,0.042 -0.556,0.13 -0.856,0.265c-0.107,0.049 -0.243,0.117 -0.407,0.201c-0.164,0.085 -0.339,0.188 -0.524,0.308c-0.186,0.12 -0.375,0.262 -0.567,0.425c-0.193,0.155 -0.375,0.332 -0.546,0.53c-0.221,0.255 -0.453,0.545 -0.696,0.87c-0.235,0.325 -0.485,0.651 -0.749,0.976c-0.257,0.325 -0.532,0.633 -0.824,0.923c-0.286,0.29 -0.589,0.523 -0.91,0.7l-0.225,0.128l0.279,0c0.1,-0.007 0.203,-0.011 0.31,-0.011c0.364,0 0.699,0.039 1.006,0.117c0.307,0.078 0.599,0.237 0.878,0.477c0.578,0.509 1.366,1.425 2.365,2.748c1.106,1.471 1.969,2.429 2.59,2.875c0.621,0.446 1.363,0.686 2.226,0.722l0,0.488zm13.099,-8.064c-0.136,0.014 -0.279,0.039 -0.428,0.074c1.006,-0.417 1.816,-0.802 2.429,-1.156c0.62,-0.361 1.099,-0.704 1.434,-1.029c0.343,-0.326 0.571,-0.637 0.685,-0.934c0.115,-0.297 0.171,-0.597 0.171,-0.902c0,-0.353 -0.074,-0.661 -0.225,-0.923c-0.149,-0.268 -0.353,-0.502 -0.61,-0.7c-0.249,-0.198 -0.541,-0.361 -0.877,-0.488c-0.335,-0.134 -0.688,-0.24 -1.06,-0.318c-0.364,-0.078 -0.735,-0.131 -1.113,-0.159c-0.371,-0.036 -0.727,-0.053 -1.07,-0.053c-0.378,0 -0.774,0.021 -1.188,0.063c-0.407,0.043 -0.803,0.106 -1.188,0.191c-0.385,0.078 -0.746,0.177 -1.081,0.297c-0.328,0.121 -0.606,0.262 -0.835,0.425c-0.899,0.65 -1.348,1.375 -1.348,2.175c0,0.191 0.025,0.385 0.075,0.583c0.057,0.191 0.135,0.364 0.235,0.52c0.107,0.149 0.232,0.272 0.375,0.371c0.15,0.099 0.321,0.149 0.513,0.149c0.165,0 0.307,-0.018 0.429,-0.053c0.121,-0.043 0.217,-0.092 0.289,-0.149c0.078,-0.063 0.135,-0.127 0.171,-0.191c0.036,-0.063 0.053,-0.12 0.053,-0.169c0,-0.135 -0.039,-0.248 -0.117,-0.34c-0.079,-0.092 -0.168,-0.187 -0.268,-0.286c-0.093,-0.099 -0.178,-0.213 -0.257,-0.34c-0.078,-0.134 -0.118,-0.308 -0.118,-0.52c0,-0.36 0.104,-0.675 0.311,-0.944c0.207,-0.276 0.478,-0.506 0.813,-0.69c0.336,-0.183 0.714,-0.321 1.135,-0.413c0.428,-0.092 0.863,-0.138 1.305,-0.138c0.414,0 0.814,0.053 1.199,0.159c0.385,0.099 0.728,0.247 1.027,0.445c0.3,0.199 0.54,0.442 0.717,0.732c0.179,0.291 0.269,0.619 0.269,0.987c0,0.276 -0.018,0.527 -0.054,0.753c-0.036,0.227 -0.104,0.439 -0.204,0.637c-0.1,0.198 -0.236,0.392 -0.406,0.584c-0.171,0.183 -0.393,0.374 -0.664,0.572c-0.264,0.191 -0.585,0.397 -0.963,0.616c-0.371,0.212 -0.81,0.449 -1.317,0.711c-0.335,0.169 -0.603,0.307 -0.802,0.413c-0.193,0.107 -0.339,0.195 -0.439,0.266c-0.093,0.07 -0.154,0.13 -0.182,0.18c-0.021,0.049 -0.032,0.103 -0.032,0.159c0,0.227 0.139,0.34 0.417,0.34c0.15,0 0.289,-0.053 0.418,-0.16c0.378,-0.304 0.749,-0.53 1.113,-0.678c0.371,-0.156 0.717,-0.234 1.038,-0.234c0.478,0 0.885,0.088 1.219,0.265c0.343,0.17 0.625,0.404 0.846,0.701c0.222,0.297 0.382,0.65 0.481,1.06c0.108,0.404 0.161,0.839 0.161,1.305c0,0.764 -0.102,1.401 -0.31,1.91c-0.199,0.502 -0.492,0.905 -0.878,1.21c-0.377,0.304 -0.845,0.519 -1.401,0.647c-0.557,0.127 -1.188,0.191 -1.895,0.191c-0.114,0 -0.246,-0.004 -0.396,-0.011c-0.15,-0.014 -0.303,-0.032 -0.46,-0.053c-0.157,-0.021 -0.314,-0.046 -0.471,-0.074c-0.15,-0.035 -0.285,-0.078 -0.407,-0.127c-0.249,-0.1 -0.467,-0.234 -0.652,-0.404c-0.179,-0.176 -0.336,-0.431 -0.471,-0.763c-0.214,-0.517 -0.564,-0.775 -1.049,-0.775c-0.286,0 -0.514,0.074 -0.685,0.223c-0.164,0.148 -0.246,0.329 -0.246,0.541c0,0.502 0.449,0.969 1.348,1.4c0.221,0.106 0.471,0.202 0.749,0.287c0.279,0.078 0.571,0.141 0.878,0.191c0.314,0.056 0.631,0.099 0.952,0.127c0.329,0.028 0.65,0.043 0.964,0.043c0.492,0 1.002,-0.032 1.53,-0.096c0.535,-0.064 1.056,-0.166 1.563,-0.308c0.513,-0.148 0.999,-0.336 1.455,-0.562c0.457,-0.233 0.856,-0.516 1.199,-0.849c0.349,-0.339 0.625,-0.732 0.825,-1.177c0.206,-0.446 0.31,-0.955 0.31,-1.528c0,-0.538 -0.104,-1.04 -0.31,-1.507c-0.208,-0.467 -0.504,-0.87 -0.889,-1.209c-0.386,-0.347 -0.856,-0.619 -1.414,-0.817c-0.556,-0.198 -1.184,-0.297 -1.883,-0.297c-0.149,0 -0.296,0.007 -0.438,0.021zm18.106,3.586l0.515,0l-0.311,4.478l-12.019,0l0,-0.488l0.299,0c0.722,0 1.186,-0.096 1.392,-0.287c0.214,-0.191 0.35,-0.431 0.407,-0.721c0.056,-0.297 0.085,-1.047 0.085,-2.25l0,-7.055c0,-1.096 -0.032,-1.818 -0.096,-2.164c-0.057,-0.347 -0.197,-0.587 -0.417,-0.722c-0.215,-0.141 -0.671,-0.212 -1.371,-0.212l0,-0.488l10.371,0l0.343,3.586l-0.502,0c-0.23,-1.004 -0.512,-1.715 -0.846,-2.132c-0.33,-0.425 -0.722,-0.69 -1.178,-0.796c-0.456,-0.113 -1.191,-0.17 -2.205,-0.17l-2.012,0l0,6.037l1.542,0c0.705,0 1.199,-0.06 1.476,-0.18c0.286,-0.121 0.471,-0.301 0.556,-0.541c0.094,-0.248 0.141,-0.725 0.141,-1.433l0.502,0l0,4.923l-0.502,0c0,-0.799 -0.069,-1.333 -0.205,-1.602c-0.135,-0.276 -0.335,-0.453 -0.599,-0.53c-0.257,-0.085 -0.695,-0.128 -1.315,-0.128l-1.596,0l0,3.406c0,1.704 0.11,2.709 0.333,3.013c0.22,0.297 0.815,0.446 1.786,0.446l1.081,0c0.764,0 1.391,-0.096 1.883,-0.287c0.494,-0.198 0.961,-0.598 1.404,-1.199c0.448,-0.608 0.802,-1.443 1.058,-2.504zm6.189,-2.737l7.577,0l0,3.469c0,1.203 -0.032,1.97 -0.096,2.303c-0.064,0.325 -0.218,0.565 -0.461,0.721c-0.235,0.156 -0.659,0.234 -1.273,0.234l-0.503,0l0,0.488l6.603,0l0,-0.488l-0.331,0c-0.65,0 -1.091,-0.085 -1.327,-0.255c-0.236,-0.17 -0.382,-0.428 -0.438,-0.775c-0.051,-0.353 -0.076,-1.096 -0.076,-2.228l0,-7.055c0,-1.195 0.035,-1.952 0.107,-2.27c0.079,-0.319 0.228,-0.534 0.45,-0.647c0.221,-0.121 0.688,-0.181 1.402,-0.181l0.213,0l0,-0.488l-6.603,0l0,0.488l0.385,0c0.735,0 1.209,0.064 1.424,0.191c0.221,0.128 0.364,0.357 0.428,0.69c0.064,0.332 0.096,1.071 0.096,2.217l0,2.854l-7.577,0l0,-2.854c0,-1.195 0.036,-1.952 0.108,-2.27c0.077,-0.319 0.228,-0.534 0.448,-0.647c0.221,-0.121 0.685,-0.181 1.392,-0.181l0.268,0l0,-0.488l-6.53,0l0,0.488l0.269,0c0.735,0 1.209,0.064 1.422,0.191c0.223,0.128 0.364,0.357 0.428,0.69c0.072,0.332 0.108,1.071 0.108,2.217l0,7.055c0,1.203 -0.036,1.97 -0.108,2.303c-0.064,0.325 -0.217,0.565 -0.459,0.721c-0.236,0.156 -0.664,0.234 -1.285,0.234l-0.375,0l0,0.488l6.53,0l0,-0.488l-0.376,0c-0.648,0 -1.091,-0.085 -1.327,-0.255c-0.228,-0.17 -0.37,-0.428 -0.428,-0.775c-0.056,-0.353 -0.085,-1.096 -0.085,-2.228l0,-3.469zm17.593,3.82l7.545,-8.944c-0.022,-0.318 -0.05,-0.577 -0.086,-0.775c-0.036,-0.205 -0.118,-0.364 -0.246,-0.477c-0.121,-0.12 -0.306,-0.202 -0.556,-0.244c-0.243,-0.043 -0.585,-0.064 -1.028,-0.064l-0.384,0l0,-0.488l6.602,0l0,0.488l-0.213,0c-0.364,0 -0.66,0.014 -0.889,0.043c-0.22,0.028 -0.399,0.074 -0.535,0.138c-0.128,0.063 -0.225,0.148 -0.289,0.254c-0.057,0.106 -0.103,0.237 -0.139,0.393c-0.071,0.304 -0.107,1.061 -0.107,2.27l0,7.055c0,0.573 0.003,1.044 0.01,1.412c0.015,0.367 0.036,0.64 0.064,0.816c0.029,0.17 0.072,0.322 0.129,0.457c0.065,0.127 0.161,0.233 0.289,0.318c0.135,0.085 0.31,0.148 0.525,0.191c0.214,0.042 0.489,0.064 0.824,0.064l0.331,0l0,0.488l-6.602,0l0,-0.488l0.502,0c0.315,0 0.574,-0.018 0.781,-0.054c0.208,-0.042 0.375,-0.102 0.503,-0.18c0.136,-0.085 0.236,-0.184 0.3,-0.297c0.064,-0.12 0.115,-0.262 0.15,-0.424c0.064,-0.326 0.096,-1.093 0.096,-2.303l0,-7.49l-7.556,8.944c0.008,0.311 0.026,0.58 0.054,0.806c0.036,0.227 0.11,0.414 0.225,0.563c0.121,0.148 0.3,0.258 0.534,0.328c0.243,0.071 0.578,0.107 1.006,0.107l0.375,0l0,0.488l-6.528,0l0,-0.488l0.374,0c0.322,0 0.586,-0.018 0.792,-0.054c0.207,-0.042 0.375,-0.102 0.504,-0.18c0.135,-0.085 0.235,-0.184 0.299,-0.297c0.064,-0.12 0.114,-0.262 0.149,-0.424c0.036,-0.163 0.062,-0.435 0.075,-0.817c0.022,-0.389 0.033,-0.884 0.033,-1.486l0,-7.055c0,-0.573 -0.011,-1.043 -0.033,-1.411c-0.013,-0.375 -0.039,-0.644 -0.075,-0.806c-0.035,-0.156 -0.082,-0.29 -0.138,-0.403c-0.051,-0.114 -0.139,-0.206 -0.267,-0.276c-0.122,-0.071 -0.297,-0.12 -0.525,-0.149c-0.228,-0.035 -0.535,-0.053 -0.92,-0.053l-0.268,0l0,-0.488l6.528,0l0,0.488l-0.267,0c-0.364,0 -0.656,0.014 -0.879,0.043c-0.22,0.028 -0.399,0.074 -0.533,0.138c-0.13,0.063 -0.225,0.148 -0.29,0.254c-0.058,0.106 -0.104,0.237 -0.14,0.393c-0.07,0.304 -0.106,1.061 -0.106,2.27l0,7.406zm13.154,-7.533l0.492,0c0.149,-0.913 0.364,-1.592 0.643,-2.037c0.284,-0.446 0.587,-0.711 0.909,-0.796c0.321,-0.092 0.949,-0.138 1.884,-0.138l2.151,0l0,10.153c0,1.203 -0.036,1.97 -0.107,2.303c-0.064,0.325 -0.218,0.565 -0.461,0.721c-0.236,0.156 -0.663,0.234 -1.284,0.234l-0.75,0l0,0.488l7.235,0l0,-0.488l-0.705,0c-0.65,0 -1.092,-0.085 -1.327,-0.255c-0.236,-0.17 -0.382,-0.432 -0.44,-0.785c-0.049,-0.354 -0.075,-1.093 -0.075,-2.218l0,-10.153l2.334,0c0.792,0 1.352,0.05 1.68,0.149c0.328,0.092 0.636,0.35 0.92,0.774c0.285,0.418 0.51,1.1 0.674,2.048l0.461,0l-0.074,-3.459l-14.086,0l-0.074,3.459z" clip-rule="evenodd" fill-rule="evenodd"/>
  <path id="svg_79" fill="#001543" d="m239.306,112.788588l0.845,0c1.003,1.282 2.575,1.695 4.083,2.172c-0.953,1.003 -2.459,0.678 -3.651,1.135c-1.195,1.377 -0.957,3.397 -0.046,4.851c1.227,2.099 3.162,4.016 3.172,6.582c0.296,3.022 -1.435,5.706 -3.329,7.952c-0.958,1.037 -1.223,2.394 -1.223,3.746c0.158,3.946 -4.19,6.974 -8.043,6.527c-3.666,-0.384 -7.439,-1.323 -11.083,-0.251c-2.154,0.629 -4.73,0.423 -6.498,1.956c-3.064,3.254 -2.968,7.879 -3.878,11.934c-1.889,1.415 -3.946,2.693 -6.207,3.484c0.367,-0.963 0.749,-1.926 1.263,-2.831c0.076,-0.265 0.229,-0.801 0.306,-1.066c0.86,-0.487 2.052,-0.688 2.53,-1.617c1.547,-3.623 1.899,-7.564 1.757,-11.447c1.816,-0.487 3.603,-1.136 5.111,-2.266c-2.708,0.28 -5.29,1.091 -7.933,1.647c1.36,-1.391 2.71,-2.999 2.312,-5.063c-1.965,0.934 -4.037,1.632 -5.993,2.58c-0.285,-0.845 -0.66,-1.656 -1.206,-2.378c-0.601,1.312 -0.544,2.732 -0.336,4.118c-1.588,-1.518 -3.294,-3.686 -2.372,-5.957c0.83,-1.523 1.883,-3.003 3.293,-4.079c2.689,-1.661 5.977,-1.868 9.052,-2.295c1.62,-0.541 3.041,-1.509 4.583,-2.227c2.495,-1.263 5.315,-1.956 8.141,-1.774c2.937,0.181 6.043,-0.158 8.788,1.106c1.766,0.683 3.196,1.985 4.978,2.624c2.093,0.099 3.101,-2.216 2.994,-3.932c0.082,-3.46 -2.994,-5.834 -3.921,-8.989c-0.606,-2.286 0,-5.274 2.511,-6.242zm-237.306,15.192c4.84681,0.216 9.85655,-0.61 14.5608,0.86c5.9923,1.897 9.4645,9.073 7.036,14.711c-1.5985,4.58 -6.4861,7.613 -11.4093,7.657c-3.39584,0.025 -6.79167,-0.01 -10.1875,0.005l0,-23.233zm3.45691,3.018c0.15272,5.765 -0.29021,11.56 0.23418,17.301c3.73186,-0.192 7.83031,0.496 11.18541,-1.495c4.9587,-2.929 5.3711,-10.822 0.6465,-14.135c-3.406,-2.694 -8.04915,-1.416 -12.06609,-1.671zm38.43849,-3.013c1.0336,-0.005 2.067,-0.005 3.1057,-0.015c0.0102,7.746 -0.0153,15.497 0.0101,23.243c-1.0488,0 -2.0925,0 -3.1412,0c0.0612,-7.741 0.0101,-15.487 0.0254,-23.228zm83.5206,5.667c2.139,-3.347 5.957,-5.77 10.081,-5.933c3.325,-0.255 6.537,0.743 9.602,1.868c0,0.669 0,1.337 0.01,2.005c-3.518,-1.867 -7.728,-2.796 -11.694,-1.907c-4.007,1.052 -7.158,4.621 -7.54,8.621c-0.163,1.981 -0.051,4.055 0.88,5.864c1.594,3.416 5.367,5.696 9.221,5.76c3.268,0.192 6.45,-0.924 9.311,-2.359c0.005,0.447 0.016,1.337 0.021,1.784c-3.681,1.819 -8.019,2.797 -12.102,1.78c-4.236,-0.949 -7.861,-4.227 -9.011,-8.287c-0.652,-3.062 -0.545,-6.473 1.221,-9.196zm22.453,-5.672c0.544,0.01 1.094,0.02 1.649,0.034c-0.01,7.732 -0.035,15.463 0.01,23.194c-0.412,0.005 -1.242,0.015 -1.659,0.02c0.005,-7.751 0.01,-15.502 0,-23.248zm22.452,-0.005c0.437,0 1.319,0.01 1.762,0.01c-0.036,3.367 0.08,6.728 -0.077,10.09c2.469,-2.462 6.74,-3.332 9.744,-1.268c2.21,1.416 2.984,4.016 3.142,6.444c-0.174,2.639 -1.161,5.421 -3.615,6.866c-3.258,2.123 -7.372,1.494 -10.889,0.408c-0.153,-7.515 -0.027,-15.035 -0.067,-22.55zm1.751,11.821c0.016,3.185 0.03,6.374 -0.016,9.559c2.852,0.949 6.441,1.077 8.753,-1.086c3.564,-2.905 2.744,-9.638 -1.885,-11.083c-2.652,-0.767 -5.136,0.801 -6.852,2.61zm-122.5399,-10.12c1.553,-0.978 3.5029,1.341 2.2606,2.629c-0.7789,1.032 -2.4845,0.86 -3.0751,-0.241c-0.5193,-0.84 -0.0306,-1.946 0.8145,-2.388zm-23.6026,9.132c2.2859,-3.775 8.711,-4.217 11.4245,-0.679c1.3289,1.617 1.6497,3.711 1.665,5.717c-3.7878,0.009 -7.5758,-0.005 -11.3585,0.004c0.2392,1.809 1.125,3.657 2.9529,4.409c2.7288,1.023 5.7835,0.108 8.1255,-1.391c0,0.969 0.0052,1.937 0.0153,2.905c-2.9835,1.765 -6.9342,2.408 -10.1519,0.865c-4.2206,-2.216 -5.076,-8.07 -2.6728,-11.83zm1.7412,3.288c2.8001,0.054 5.6003,0.044 8.4004,0.005c-0.2596,-1.942 -1.731,-4.055 -4.0169,-3.775c-2.2962,-0.192 -3.9,1.819 -4.3835,3.77zm21.1538,-6.1c1.0691,0.005 2.1333,0.005 3.2024,0.01c-0.0101,5.067 -0.005,10.14 -0.005,15.207c-1.0641,0 -2.1283,0 -3.1923,0c0,-5.072 0.0102,-10.144 -0.0051,-15.217zm4.8621,-0.019c1.1303,0.014 2.2606,0.019 3.3907,0.009c1.4969,3.117 2.8359,6.301 4.3581,9.408c1.4357,-3.116 2.7289,-6.291 4.1595,-9.412c1.1354,0.014 2.2656,0.014 3.4009,0c-2.4336,5.136 -4.7399,10.331 -7.0919,15.501c-0.2698,0 -0.8045,0 -1.0743,0c-2.3675,-5.175 -4.7298,-10.35 -7.143,-15.506zm17.1421,2.354c2.4947,-3.274 8.3393,-3.593 10.9767,-0.329c1.3745,1.636 1.7869,3.789 1.8532,5.844c-3.8184,0.019 -7.642,-0.035 -11.4604,0.034c0.2545,1.922 1.3594,3.883 3.3653,4.522c2.6424,0.757 5.4883,-0.079 7.703,-1.539c-0.0102,0.978 -0.005,1.957 0.0101,2.935c-3.0393,1.808 -7.1072,2.384 -10.3503,0.747c-4.1341,-2.507 -4.9436,-8.523 -2.0976,-12.214zm4.1951,0.226c-1.6037,0.531 -2.3369,2.104 -2.7747,3.558c2.7646,0.015 5.524,0.03 8.2885,-0.009c-0.2189,-0.865 -0.3259,-1.809 -0.9469,-2.517c-0.9674,-1.425 -3.0395,-1.464 -4.5669,-1.032zm14.6066,0.919c1.1048,-1.44 2.1587,-3.2 4.0526,-3.745c1.6903,-0.388 3.2127,0.644 4.5057,1.553c-0.5397,0.87 -1.0691,1.745 -1.5731,2.634c-1.115,-0.815 -2.403,-1.862 -3.9151,-1.395c-1.7871,0.584 -2.9428,2.442 -2.9581,4.222c-0.061,2.762 -0.0151,5.524 -0.005,8.286c-1.0182,-0.044 -2.286,0.531 -3.1515,-0.142c-0.112,-4.959 -0.0102,-9.924 -0.0459,-14.888c1.0437,0 2.0824,0 3.1261,0c-0.0153,1.16 -0.0204,2.32 -0.0357,3.475zm8.7671,-3.44c1.171,0.014 2.3365,0.019 3.5125,0.009c1.477,2.876 2.902,5.771 4.338,8.666c1.477,-2.881 2.785,-5.844 4.246,-8.734c1.171,0.019 2.342,0.019 3.513,0.014c-3.859,7.683 -7.601,15.419 -11.465,23.096c-1.12,-0.01 -2.246,-0.015 -3.3604,-0.025c1.7314,-3.705 3.5944,-7.357 5.4114,-11.024c-2.097,-3.986 -4.118,-8.006 -6.1955,-12.002zm55.1375,-0.074c0.418,0.01 1.247,0.029 1.66,0.039c-0.015,3.082 -0.036,6.164 -0.005,9.245c-0.021,1.662 0.667,3.485 2.316,4.232c2.694,1.367 6.192,-0.236 7.266,-2.85c0.116,-3.539 0.009,-7.088 0.041,-10.627c0.427,-0.01 1.282,-0.034 1.705,-0.044c-0.005,5.087 0,10.174 0,15.261c-0.433,0 -1.298,-0.005 -1.732,-0.005c0.011,-0.855 0.027,-1.705 0.047,-2.56c-0.911,0.899 -1.727,1.98 -2.969,2.467c-3.172,1.351 -7.606,-0.379 -8.125,-3.888c-0.413,-3.74 -0.056,-7.515 -0.204,-11.27zm71.588,10.611c1.154,0.261 2.337,0.413 3.523,0.526c-0.281,1.971 -0.861,4.493 1.109,5.859c3.671,2.664 8.049,4.527 11.033,8.011c1.008,1.613 3.665,0.723 4.414,2.502c-1.919,0.143 -3.834,-0.069 -5.737,-0.177c-0.8,-0.599 -0.857,-1.764 -1.702,-2.329c-1.892,-1.455 -3.574,-3.171 -5.685,-4.335c-2.328,-1.475 -5.011,-2.507 -6.925,-4.517c1.044,-1.74 0.916,-3.795 -0.03,-5.54z"/>
  <g id="svg_85">
   <path id="svg_6" fill="#001543" d="m423.014262,30.330901l-1.05,0l0,-11.0921c0,-1.10614 -0.747,-2.01913 -2.046,-2.01913l-9.489,0c-1.106,0 -1.853,0.74707 -1.853,2.04723l0,2.6828c0,1.9366 -0.028,3.4299 -0.359,5.0339c-0.333,1.5766 -0.747,2.5449 -1.356,3.3473l-0.47,0c-1.328,0 -1.964,0.8305 -1.964,2.0192l0,3.817c0,1.3002 0.885,2.0473 2.019,2.0473c1.162,0 2.047,-0.7471 2.047,-2.0473l0,-1.8251l12.475,0l0,1.8251c0,1.3002 0.885,2.0473 2.02,2.0473c1.16,0 2.045,-0.7471 2.045,-2.0473l0,-3.817c0,-1.1887 -0.636,-2.0192 -2.019,-2.0192zm-5.2,0l-6.722,0c0.416,-0.8849 0.747,-1.6873 1.024,-2.904c0.276,-1.273 0.387,-2.545 0.415,-4.2051l0.027,-1.9911l5.256,0l0,9.1002z"/>
   <path id="svg_7" fill="#001543" d="m434.775262,17.084901c-4.951,0 -8.77,3.7337 -8.77,8.7122c0,5.0347 3.818,8.713 8.77,8.713c4.951,0 8.769,-3.8162 8.769,-8.7683c0,-4.9785 -3.818,-8.6569 -8.769,-8.6569zm0,13.5256c-2.712,0 -4.674,-2.0472 -4.674,-4.8406c0,-2.739 1.963,-4.7854 4.674,-4.7854c2.739,0 4.674,2.0464 4.674,4.7854c0,2.7934 -1.853,4.8406 -4.674,4.8406z"/>
   <path id="svg_8" fill="#001543" d="m462.571262,30.330901l-1.049,0l0,-11.0921c0,-1.10614 -0.748,-2.01913 -2.047,-2.01913l-9.488,0c-1.106,0 -1.853,0.74707 -1.853,2.04723l0,2.6828c0,1.9366 -0.028,3.4299 -0.359,5.0339c-0.333,1.5766 -0.747,2.5449 -1.357,3.3473l-0.47,0c-1.328,0 -1.964,0.8305 -1.964,2.0192l0,3.817c0,1.3002 0.885,2.0473 2.019,2.0473c1.162,0 2.047,-0.7471 2.047,-2.0473l0,-1.8251l12.475,0l0,1.8251c0,1.3002 0.885,2.0473 2.019,2.0473c1.161,0 2.046,-0.7471 2.046,-2.0473l0,-3.817c0.001,-1.1887 -0.636,-2.0192 -2.019,-2.0192zm-5.198,0l-6.722,0c0.415,-0.8849 0.748,-1.6873 1.023,-2.904c0.277,-1.273 0.387,-2.545 0.415,-4.2051l0.027,-1.9911l5.257,0l0,9.1002z"/>
   <path id="svg_9" fill="#001543" d="m474.191262,17.084901c-4.951,0 -8.77,3.7337 -8.77,8.7122c0,5.0347 3.818,8.713 8.77,8.713c4.951,0 8.769,-3.8162 8.769,-8.7683c0,-4.9785 -3.818,-8.6569 -8.769,-8.6569zm0,13.5256c-2.712,0 -4.675,-2.0472 -4.675,-4.8406c0,-2.739 1.964,-4.7854 4.675,-4.7854c2.739,0 4.674,2.0464 4.674,4.7854c0,2.7934 -1.853,4.8406 -4.674,4.8406z"/>
   <path id="svg_10" fill="#001543" d="m418.035262,44.651801l-11.562,0c-1.328,0 -2.047,0.913 -2.047,2.0191l0,13.2228c0,1.2993 0.94,2.0463 2.103,2.0463c1.133,0 2.046,-0.747 2.046,-2.0463l0,-11.2308l7.386,0l0,11.2308c0,1.2993 0.913,2.0463 2.074,2.0463c1.135,0 2.075,-0.7751 2.075,-2.0753l0,-13.1938c0,-1.1053 -0.746,-2.0191 -2.075,-2.0191z"/>
   <path id="svg_11" fill="#001543" d="m438.174262,44.651801l-0.165,0c-1.218,0 -2.019,0.6092 -2.877,1.826l-6.751,9.5707l0,-9.3486c0,-1.3002 -0.829,-2.0473 -1.963,-2.0473c-1.162,0 -2.019,0.7471 -2.019,2.0473l0,12.7513c0,1.3835 0.885,2.3229 2.296,2.3229l0.193,0c1.3,0 2.13,-0.6628 2.932,-1.8251l6.749,-9.5716l0,9.3495c0,1.2993 0.831,2.0464 1.993,2.0464c1.133,0 1.991,-0.7471 1.991,-2.0464l0,-12.7513c0,-1.438 -0.858,-2.3238 -2.379,-2.3238z"/>
   <path id="svg_12" fill="#001543" d="m461.244262,57.762801l-1.051,0l0,-11.2299c0,-1.2993 -0.94,-2.0464 -2.102,-2.0464c-1.135,0 -2.047,0.7471 -2.047,2.0464l0,11.2299l-7.191,0l0,-11.2299c0,-1.2993 -0.886,-2.0464 -2.075,-2.0464c-1.161,0 -2.074,0.7471 -2.074,2.0464l0,13.2227c0,1.1062 0.747,2.0192 2.047,2.0192l12.447,0l0,1.8251c0,1.3002 0.885,2.0472 2.02,2.0472c1.161,0 2.046,-0.747 2.046,-2.0472l0,-3.789c0,-1.3563 -0.802,-2.0481 -2.02,-2.0481z"/>
   <path id="svg_13" fill="#001543" d="m482.020262,57.762801l-1.05,0l0,-11.2299c0,-1.2993 -0.94,-2.0464 -2.102,-2.0464c-1.134,0 -2.047,0.7471 -2.047,2.0464l0,11.2299l-7.192,0l0,-11.2299c0,-1.2993 -0.886,-2.0464 -2.075,-2.0464c-1.161,0 -2.074,0.7471 -2.074,2.0464l0,13.2227c0,1.1062 0.746,2.0192 2.046,2.0192l12.448,0l0,1.8251c0,1.3002 0.885,2.0472 2.019,2.0472c1.162,0 2.047,-0.747 2.047,-2.0472l0,-3.789c0,-1.3563 -0.803,-2.0481 -2.02,-2.0481z"/>
   <path id="svg_14" fill="#001543" d="m502.239262,58.870101l-5.643,-12.2817c-0.637,-1.3563 -1.522,-1.9366 -2.794,-1.9366l-0.221,0c-1.329,0 -2.215,0.5811 -2.85,1.9366l-5.644,12.2817c-0.551,1.2167 -0.165,2.2956 0.942,2.7109c0.995,0.3863 1.991,0.165 2.544,-0.9964l1.272,-2.682c1.134,0.3872 2.544,0.5812 3.873,0.5812c1.41,0 2.656,-0.194 3.706,-0.5812l1.218,2.6556c0.524,1.1606 1.604,1.3827 2.571,1.0228c1.108,-0.4153 1.551,-1.5495 1.026,-2.7109zm-8.52,-4.0664c-0.859,0 -1.77,-0.1106 -2.463,-0.3038l2.407,-5.3665l2.407,5.3665c-0.664,0.1932 -1.494,0.3038 -2.351,0.3038z"/>
   <path id="svg_15" fill="#001543" d="m359.035262,22.861401c-0.212,0.0732 -0.369,0.2297 -0.471,0.4391l0.048,0.0629c0.276,-0.0238 0.61,0.2859 0.754,0.5795c0.201,0.3608 0.227,0.7785 -0.012,0.9351c-0.174,0.1115 -0.434,0.0553 -0.652,-0.1523l-0.119,0.0332c0.047,0.1404 0.103,0.2816 0.174,0.4246c0.525,1.0559 1.499,1.7273 2.172,1.4882c0.679,-0.2238 0.808,-1.2662 0.286,-2.317c-0.522,-1.0517 -1.499,-1.7222 -2.18,-1.4933z"/>
   <path id="svg_16" fill="#001543" d="m362.831262,9.330261l-18.313,0c-5.05,0 -8.858,3.903 -8.858,9.07808l0,42.45146c0,5.1027 3.725,8.8057 8.858,8.8057l18.313,0c17.939,0 30.959,-12.7445 30.959,-30.3033c0,-17.4014 -13.02,-30.03194 -30.959,-30.03194zm-21.297,57.16234c-2.057,-1.0057 -3.471,-3.0402 -3.471,-5.9111l0,-6.3918c1.939,-0.3846 3.862,-0.742 3.862,-0.742l0.244,-1.0491c-0.875,-0.0443 -2.624,-0.0213 -4.106,0.0178l0,-6.3178c1.878,0.4663 4.704,1.0653 6.809,1.0653c3.721,0 5.785,-2.1825 5.785,-6.339c0,-5.1045 -1.634,-9.7444 -1.098,-12.6527l-0.13,-0.1685c-1.859,1.9401 -3.068,1.427 -3.2,0.8024c-0.265,-1.2508 1.911,-2.7807 3.154,-3.3133c0.024,-0.0817 0.056,-0.1668 0.09,-0.2536c-1.163,0.1796 -2.53,0.0324 -2.577,-0.7998c-0.057,-0.987 1.924,-1.8685 4.514,-1.6499c0.049,-0.0408 0.099,-0.0825 0.149,-0.1242c-0.163,-0.0647 -0.337,-0.1463 -0.554,-0.2578c-0.67,-0.3446 -0.833,-0.9173 -0.614,-1.3333c0.24,-0.4578 0.972,-0.6365 1.566,-0.6237c0.932,0.0195 1.724,0.2459 2.304,0.4807c0.065,-0.0281 0.132,-0.0562 0.194,-0.0791c-0.215,-0.1677 -0.403,-0.3514 -0.511,-0.5386c-0.16,-0.2749 -0.2,-0.6518 0.11,-0.8969c0.362,-0.2859 1.282,-0.3871 2.112,0.3668c0.172,0.1557 0.317,0.3071 0.448,0.4518c0.093,-0.017 0.186,-0.0349 0.28,-0.0502c-0.137,-0.2119 -0.246,-0.4323 -0.282,-0.6365c-0.048,-0.2799 0.043,-0.582 0.373,-0.68834c0.359,-0.11743 0.814,0.06724 1.05,0.41694c0.253,0.3752 0.407,0.8364 0.505,1.1648c-1.832,0.2136 -6.689,1.3223 -6.689,7.1934c0,5.7248 4.757,11.7388 4.757,20.611c-0.008,3.2248 -0.719,6.459 -3.642,10.2276c-2.246,2.8921 -5.891,5.7196 -11.432,8.0187zm26.461,-39.726c0.755,-0.0417 1.619,-0.0707 2.549,-0.2008c-1.195,1.2006 -1.998,2.7747 -2.441,4.5411c-0.069,0.2536 -0.19,0.491 -0.716,0.5318c-5.099,0.3965 -9.39,-0.1982 -10.865,-2.9415c-0.17,-0.3148 -0.132,-0.5624 0.143,-0.73c0.323,-0.1966 0.737,-0.1957 1.172,-0.1234l0.103,-0.2229c-0.81,-0.5123 -2.167,-0.5965 -2.836,0.2322c-0.464,0.5761 -0.37,1.3776 0.1,2.0379l0.24,-0.091c-0.031,-0.1566 -0.051,-0.3123 -0.044,-0.4544c0.003,-0.0587 0.043,-0.1098 0.099,-0.1259c0.057,-0.0162 0.117,0.0059 0.151,0.0544c1.777,2.6131 5.109,3.4963 8.154,4.1651c4.338,0.9598 6.024,3.0147 5.876,3.4954c-0.131,0.1642 -0.313,-0.0953 -0.386,-0.1523c-3.824,-3.5337 -17.206,-1.495 -16.157,-10.3178c0.244,-2.0532 1.591,-4.1778 3.959,-4.713c-0.157,0.2484 -0.325,0.5905 -0.436,1.0108l0.383,0.103c1.13,-1.9154 3.965,-1.8448 4.209,0.1021c-0.005,-0.0128 2.242,2.2897 2.742,2.7585c0.128,0.1123 0.191,0.1821 0.109,0.2936c-0.06,0.0817 -0.351,0.0604 -0.631,-0.0366l-0.086,0.2289c0.469,0.3752 1.976,0.7207 4.609,0.5548zm3.09,0.5369c0.956,-1.01 2.019,-1.3266 4.351,-1.3266c3.22,0 5.91,3.2555 5.91,7.806c0,0.6765 -0.908,0.6714 -1.199,0.0537c-1.095,-1.9341 -2.579,-2.2123 -4.916,-2.3842c-1.725,-0.1013 -3.805,0.0451 -5.7,0.1251c-0.354,0.0178 -0.454,-0.2298 -0.4,-0.3897c0.559,-1.6669 1.047,-2.9254 1.954,-3.8843zm5.347,23.5754c-0.875,3.2402 -5.226,4.5412 -9.176,4.7292c-0.111,0.2544 -0.228,0.4944 -0.35,0.7216c2.3,0.0416 4.502,-0.3846 5.815,-0.7982c-1.182,2.2532 -5.256,4.0332 -9.407,4.0332c-2.04,0 -4.585,-0.3973 -6.794,-1.4482c1.597,-2.9185 2.212,-5.9102 2.338,-8.6688c2.548,0.7071 6.07,1.0857 8.992,0.8807c5.135,-0.3617 8.991,-2.2736 11.161,-3.6665c-1.304,3.2938 -6.194,5.3385 -10.935,5.9179c-0.032,0.24 -0.067,0.4748 -0.11,0.6994c3.558,-0.1889 6.935,-1.3444 8.466,-2.4003zm-13.581,16.3276l-16.091,0c4.624,-2.562 6.92,-4.9105 8.51,-7.1134c3.101,1.3818 6.085,1.9758 8.773,1.9758c5.041,0 9.338,-2.3221 11.578,-6.4633c2.305,-1.3836 3.834,-4.2298 3.93,-6.2617c1.436,-1.8064 1.702,-4.0868 1.261,-5.626c-0.106,-0.3668 -0.403,-0.3761 -0.921,-0.063c-4.542,2.7228 -8.939,4.0204 -13.137,4.0204c-2.545,0 -5.156,-0.4042 -7.933,-1.2082c-0.198,-2.9773 -0.809,-5.4729 -1.037,-6.9858c-0.325,-1.9987 0.137,-3.4767 2.33,-3.4767c1.608,0 4.586,0.4093 6.965,1.4908c2.356,1.0712 3.757,3.1806 4.736,3.1806c0.398,0 0.816,-0.2477 0.816,-1.0883c0,-1.7052 -0.607,-4.4518 -1.364,-5.4295c2.204,-0.1259 3.956,-0.103 4.941,0.0076c2.052,0.3574 2.149,1.387 2.553,2.0583c0.404,0.6714 1.09,0.9649 1.914,0.9649c1.526,0 2.478,-0.7879 2.478,-3.6298c0,-6.243 -3.94,-9.2679 -8.074,-9.2679c-3.393,0 -4.703,0.7463 -7.926,0.7463c-2.285,0 -4.179,-4.651 -6.777,-5.2627c-1.148,-2.55099 -3.721,-2.83944 -5.305,-1.55716c-1.439,-0.87556 -3.69,-0.40332 -3.782,1.21336c-1.655,-0.51223 -3.794,0.3803 -2.873,2.5561c-4.047,0.1148 -4.803,3.6945 -2.056,4.0944c-3.537,2.0013 -1.921,5.4576 1.048,4.7233c0.209,2.4556 1.204,6.4182 1.204,9.1563c0,3.8077 -1.727,4.6909 -4.088,4.6909c-1.858,0 -4.606,-0.6781 -6.461,-1.2057l0,-24.76833c0,-4.20762 3.032,-6.89386 6.688,-6.89386l18.1,0c16.138,0 28.532,11.10229 28.532,27.57709c0.001,16.5633 -12.393,27.8452 -28.532,27.8452z"/>
  </g>
  <g id="svg_86">
   <path id="svg_57" fill="#001543" d="m1047.342293,126.196641c-0.353,1.894 -0.687,3.695 -1.027,5.494c-0.923,4.888 -1.85,9.774 -2.776,14.662c-0.656,3.466 -1.317,6.933 -1.966,10.4c-0.049,0.26 -0.095,0.411 -0.422,0.409c-3.176,-0.014 -6.351,-0.01 -9.527,-0.01c-0.029,0 -0.059,-0.014 -0.182,-0.046c0.954,-5.298 1.91,-10.603 2.866,-15.909c-0.033,-0.016 -0.067,-0.033 -0.099,-0.049c-0.447,0.509 -0.896,1.015 -1.339,1.527c-4.06,4.697 -8.12,9.393 -12.173,14.097c-0.231,0.268 -0.463,0.393 -0.829,0.391c-2.957,-0.016 -5.915,-0.01 -8.873,-0.01c-0.138,0 -0.276,0 -0.49,0c0.155,-0.86 0.298,-1.679 0.452,-2.494c0.833,-4.398 1.668,-8.797 2.502,-13.195c0.937,-4.949 1.874,-9.896 2.803,-14.846c0.054,-0.285 0.136,-0.43 0.468,-0.428c3.129,0.011 6.258,0.006 9.386,0.008c0.076,0 0.151,0.013 0.298,0.028c-0.974,5.384 -1.942,10.741 -2.911,16.099c0.033,0.018 0.066,0.037 0.098,0.055c0.108,-0.115 0.222,-0.225 0.324,-0.345c4.384,-5.118 8.769,-10.234 13.141,-15.36c0.299,-0.352 0.602,-0.494 1.067,-0.491c2.879,0.023 5.759,0.012 8.639,0.013c0.168,0 0.336,0 0.57,0z" clip-rule="evenodd" fill-rule="evenodd"/>
   <path id="svg_58" fill="#001543" d="m924.346293,157.819641c-3.374,-0.049 -5.983,-0.412 -8.422,-1.558c-4.22,-1.981 -6.585,-5.337 -6.973,-9.957c-0.451,-5.338 0.963,-10.196 4.393,-14.347c2.922,-3.537 6.731,-5.667 11.257,-6.441c3.388,-0.58 6.771,-0.499 10.061,0.559c5.061,1.628 7.962,5.138 8.638,10.402c0.461,3.587 -0.333,7.016 -1.843,10.247c-2.724,5.821 -7.35,9.322 -13.599,10.668c-1.375,0.296 -2.804,0.345 -3.512,0.427zm8.495,-19.212c-0.101,-0.626 -0.164,-1.455 -0.379,-2.243c-0.461,-1.681 -1.462,-2.937 -3.211,-3.38c-2.563,-0.65 -4.832,-0.027 -6.537,2.005c-2.744,3.266 -3.687,7.107 -3.108,11.293c0.309,2.232 1.878,3.63 3.999,3.886c2.143,0.258 3.973,-0.38 5.473,-1.906c2.576,-2.618 3.497,-5.903 3.763,-9.655z" clip-rule="evenodd" fill-rule="evenodd"/>
   <path id="svg_59" fill="#001543" d="m959.73629,142.73364c-0.186,0.989 -0.373,1.977 -0.556,2.967c-0.688,3.713 -1.372,7.428 -2.072,11.14c-0.022,0.119 -0.196,0.298 -0.3,0.298c-3.408,0.01 -6.816,0.002 -10.224,-0.005c-0.014,0 -0.027,-0.014 -0.111,-0.064c1.905,-10.263 3.814,-20.555 5.73,-30.878c3.522,0 7.03,0 10.593,0c-0.718,3.885 -1.431,7.742 -2.144,11.598c0.035,0.019 0.071,0.039 0.107,0.059c0.451,-0.462 0.903,-0.921 1.352,-1.385c3.246,-3.354 6.489,-6.71 9.743,-10.057c0.124,-0.128 0.336,-0.238 0.508,-0.239c3.58,-0.012 7.161,-0.009 10.74,-0.007c0.046,0 0.092,0.012 0.22,0.031c-0.256,0.276 -0.476,0.52 -0.704,0.756c-3.933,4.075 -7.864,8.153 -11.81,12.215c-0.299,0.309 -0.342,0.531 -0.156,0.921c2.627,5.516 5.234,11.041 7.846,16.563c0.065,0.139 0.119,0.283 0.2,0.475c-0.176,0.011 -0.321,0.03 -0.466,0.03c-3.954,0.002 -7.908,-0.004 -11.861,0.01c-0.337,0.001 -0.483,-0.117 -0.609,-0.415c-1.871,-4.456 -3.754,-8.908 -5.636,-13.361c-0.094,-0.223 -0.197,-0.444 -0.296,-0.666c-0.032,0.005 -0.063,0.009 -0.094,0.014z" clip-rule="evenodd" fill-rule="evenodd"/>
   <path id="svg_60" fill="#001543" d="m1011.089293,126.185641c-0.44,2.377 -0.869,4.697 -1.308,7.071c-0.214,0 -0.413,0 -0.611,0c-4.39,0 -8.78,0 -13.169,0c-0.665,0 -0.66,0.001 -0.78,0.65c-0.23,1.235 -0.465,2.47 -0.714,3.791c4.615,0 9.177,0 13.797,0c-0.449,2.418 -0.88,4.751 -1.319,7.119c-4.593,0 -9.164,0 -13.789,0c-0.3,1.596 -0.594,3.162 -0.904,4.81c4.835,0 9.615,0 14.458,0c-0.199,1.057 -0.382,2.03 -0.563,3.003c-0.256,1.376 -0.517,2.75 -0.756,4.128c-0.054,0.308 -0.178,0.4 -0.486,0.4c-8.094,-0.008 -16.189,-0.006 -24.283,-0.007c-0.107,0 -0.212,-0.019 -0.366,-0.032c1.914,-10.318 3.822,-20.614 5.736,-30.933c8.346,0 16.666,0 25.057,0z" clip-rule="evenodd" fill-rule="evenodd"/>
   <path id="svg_61" fill="#001543" d="m954.660293,118.498641c-0.875,1.089 -1.662,2.07 -2.451,3.051c-1.913,2.374 -3.825,4.75 -5.746,7.119c-0.105,0.129 -0.286,0.274 -0.434,0.278c-0.917,0.026 -1.834,0.012 -2.801,0.012c0.052,-0.171 0.084,-0.303 0.133,-0.427c1.257,-3.178 2.524,-6.354 3.767,-9.538c0.148,-0.379 0.327,-0.51 0.737,-0.505c2.055,0.023 4.109,0.01 6.164,0.01c0.166,0 0.333,0 0.631,0z" clip-rule="evenodd" fill-rule="evenodd"/>
   <path id="svg_62" fill="#001543" d="m1028.183293,128.958641c0.117,-0.315 0.208,-0.575 0.309,-0.829c1.218,-3.076 2.439,-6.151 3.654,-9.229c0.097,-0.247 0.187,-0.413 0.514,-0.411c2.209,0.016 4.419,0.008 6.628,0.009c0.072,0 0.146,0.014 0.306,0.031c-0.501,0.63 -0.958,1.21 -1.421,1.785c-2.224,2.762 -4.453,5.521 -6.669,8.29c-0.203,0.253 -0.408,0.372 -0.74,0.362c-0.837,-0.023 -1.675,-0.008 -2.581,-0.008z" clip-rule="evenodd" fill-rule="evenodd"/>
  </g>
  <g id="svg_87">
   <path id="svg_24" fill="#001543" d="m63.360898,220.727004l-7.4141,0c-0.1328,3.152 -0.2816,6.021 -0.4474,8.609c-0.1667,2.587 -0.3904,4.918 -0.671,6.99c-0.2826,2.073 -0.656,3.906 -1.1213,5.5c-0.4643,1.591 -1.0605,2.968 -1.7904,4.129c-0.46431,0.765 -0.98754,1.394 -1.56768,1.892c-0.58115,0.495 -1.18626,0.895 -1.81534,1.193c-0.63107,0.299 -1.25315,0.505 -1.86625,0.622c-0.61409,0.117 -1.18625,0.174 -1.71647,0.174c-0.76288,0 -1.40194,-0.057 -1.91619,-0.174c-0.51424,-0.117 -1.0195,-0.29 -1.51677,-0.522l0.74491,-5.87c0.19871,0.066 0.39741,0.114 0.59712,0.147c0.1997,0.033 0.39841,0.051 0.59812,0.051c0.53022,0 1.05345,-0.132 1.56669,-0.399c0.51525,-0.266 0.9536,-0.712 1.31906,-1.344c0.49627,-0.728 0.92764,-1.798 1.29411,-3.208c0.36346,-1.41 0.68698,-3.21 0.96956,-5.399c0.28259,-2.19 0.50626,-4.801 0.67202,-7.838c0.16476,-3.035 0.28059,-6.575 0.34849,-10.622l20.54982,0l0,34.83l-6.817,0l0,-28.761z"/>
   <path id="svg_25" fill="#001543" d="m90.358298,238.141004l0.2476,-3.532l-0.1477,0l-2.1399,3.631l-8.858,11.247l-4.08,0l0,-24.879l6.4695,0l0,11.841l-0.2986,3.384l0.1987,0l2.04,-3.533l8.9559,-11.692l4.081,0l0,24.879l-6.4685,0l0,-11.346z"/>
   <path id="svg_26" fill="#001543" d="m121.300498,230.330004l-6.9158,0l0,19.155l-6.6672,0l0,-19.155l-7.1155,0l0,-5.723l20.6985,0l0,5.723z"/>
   <path id="svg_27" fill="#001543" d="m125.548298,215.004004c1.392,-0.264 2.9267,-0.472 4.6023,-0.621c1.6735,-0.149 3.341,-0.225 4.9996,-0.225c1.7245,0 3.4589,0.142 5.1994,0.424c1.7414,0.281 3.3104,0.846 4.7024,1.691c1.394,0.846 2.529,2.023 3.408,3.532c0.877,1.511 1.318,3.476 1.318,5.896c0,2.19 -0.381,4.039 -1.145,5.549c-0.762,1.51 -1.773,2.744 -3.034,3.707c-1.261,0.962 -2.695,1.659 -4.3028,2.09c-1.6096,0.432 -3.2772,0.646 -5.0007,0.646l-0.7988,0c-0.3645,0 -0.7449,-0.009 -1.1443,-0.024c-0.3974,-0.018 -0.7879,-0.041 -1.1693,-0.074c-0.3824,-0.033 -0.656,-0.066 -0.8208,-0.1l0,11.992l-6.816,0l0.002,-34.483zm10.1491,5.026c-0.663,0 -1.2941,0.025 -1.8902,0.075c-0.5981,0.049 -1.0784,0.107 -1.4429,0.174l0,11.295c0.1318,0.033 0.3305,0.067 0.5971,0.099c0.2656,0.034 0.5482,0.059 0.8468,0.075c0.2976,0.016 0.5881,0.024 0.8707,0.024l0.6201,0c0.8967,0 1.7844,-0.081 2.6631,-0.248c0.8797,-0.166 1.6675,-0.472 2.3635,-0.92c0.697,-0.448 1.2514,-1.07 1.6664,-1.867c0.414,-0.796 0.622,-1.84 0.622,-3.133c0,-1.096 -0.197,-1.999 -0.597,-2.713c-0.397,-0.712 -0.9215,-1.286 -1.5676,-1.716c-0.645,-0.431 -1.3859,-0.73 -2.2137,-0.896c-0.8288,-0.166 -1.6756,-0.249 -2.5383,-0.249z"/>
   <path id="svg_28" fill="#001543" d="m171.970998,247.347004c-0.995,0.796 -2.347,1.469 -4.056,2.017c-1.707,0.548 -3.523,0.821 -5.448,0.821c-4.015,0 -6.948,-1.17 -8.807,-3.509c-1.857,-2.339 -2.785,-5.549 -2.785,-9.629c0,-4.378 1.045,-7.663 3.134,-9.852c2.09,-2.19 5.025,-3.285 8.807,-3.285c1.26,0 2.488,0.166 3.682,0.498c1.195,0.331 2.256,0.879 3.185,1.641c0.929,0.764 1.675,1.792 2.238,3.086c0.564,1.294 0.847,2.903 0.847,4.827c0,0.696 -0.042,1.442 -0.125,2.237c-0.083,0.796 -0.206,1.625 -0.372,2.489l-14.997,0c0.1,2.09 0.755,3.664 1.729,4.725c0.976,1.062 2.556,1.593 4.735,1.593c1.354,0 2.551,-0.263 3.645,-0.622c1.363,-0.444 2.647,-1.053 2.647,-1.053l1.941,4.016zm-9.217,-18.363c-2.021,0.059 -2.967,0.568 -3.81,1.561c-0.839,0.987 -1.324,2.334 -1.486,4.027l9.29,0.087c0.133,-1.791 -0.028,-3.174 -0.703,-4.136c-0.678,-0.962 -1.839,-1.582 -3.291,-1.539z"/>
   <path id="svg_29" fill="#001543" d="m193.794998,229.414004c0,0 -1.98,-0.401 -3.541,-0.401c-4.44,0 -7.323,2.541 -7.323,8.152c0,5.263 2.198,7.864 6.837,7.864c1.511,0 4.425,-0.403 4.425,-0.403l0.893,4.495c-1.219,0.389 -3.611,0.976 -6.49,0.976c-9.026,0 -12.346,-6.586 -12.346,-13.272c0,-6.734 3.904,-12.785 12.883,-12.785c1.658,0 3.706,0.196 5.61,0.684l-0.948,4.69z"/>
   <path id="svg_30" fill="#001543" d="m207.683998,228.029004c0,2.029 -1.643,3.671 -3.67,3.671c-2.029,0 -3.672,-1.643 -3.672,-3.671c0,-2.027 1.643,-3.671 3.672,-3.671c2.027,0 3.67,1.643 3.67,3.671z"/>
   <path id="svg_31" fill="#001543" d="m207.683998,246.184004c0,2.028 -1.643,3.673 -3.67,3.673c-2.029,0 -3.672,-1.644 -3.672,-3.673c0,-2.029 1.643,-3.672 3.672,-3.672c2.027,0 3.67,1.643 3.67,3.672z"/>
   <path id="svg_32" fill="#001543" d="m45.885328,271.997004c-1.2282,0 -2.21075,-0.397 -2.94467,-1.195c-0.73293,-0.798 -1.10039,-1.866 -1.10039,-3.204c0,-1.353 0.36846,-2.425 1.10338,-3.212c0.73692,-0.786 1.73545,-1.181 2.9976,-1.181c1.26115,0 2.26068,0.395 2.9956,1.181c0.73692,0.787 1.10439,1.854 1.10439,3.196c0,1.375 -0.36946,2.453 -1.10838,3.239c-0.73792,0.785 -1.75443,1.176 -3.04753,1.176zm0.02397,-1.144c1.65158,0 2.47736,-1.09 2.47736,-3.27c0,-2.153 -0.8148,-3.229 -2.44541,-3.229c-1.62661,0 -2.43842,1.08 -2.43842,3.245c0,2.168 0.80282,3.254 2.40647,3.254z"/>
   <path id="svg_33" fill="#001543" d="m51.669398,273.717004l0,-3.13l0.7828,0c0.5861,-0.853 1.0245,-1.822 1.3171,-2.908c0.2935,-1.088 0.4403,-2.296 0.4403,-3.622l0,-0.667l5.5169,0l0,7.197l1.5597,0l0,3.13l-1.5597,0l0,-1.913l-6.5004,0l0,1.913l-1.5567,0zm2.3825,-3.13l4.1079,0l0,-6.05l-2.5882,0l0,0.145c0,1.056 -0.1268,2.073 -0.3804,3.058c-0.2536,0.984 -0.6331,1.934 -1.1393,2.847z"/>
   <path id="svg_34" fill="#001543" d="m63.695698,271.804004l0,-8.414l1.4639,0l0,6.368l4.0061,-6.368l1.5597,0l0,8.414l-1.4649,0l0,-6.368l-3.9981,6.368l-1.5667,0z"/>
   <path id="svg_35" fill="#001543" d="m74.016998,271.804004l0,-8.414l1.5587,0l0,3.417l3.9113,0l0,-3.417l1.5597,0l0,8.414l-1.5597,0l0,-3.85l-3.9123,0l0,3.85l-1.5577,0z"/>
   <path id="svg_36" fill="#001543" d="m89.626398,271.803004l0,-8.413l1.5597,0l0.008,3.681c0.7279,0 1.1953,-0.07 1.4,-0.209c0.2067,-0.141 0.5302,-0.606 0.9745,-1.402l0.2067,-0.356c0.4114,-0.733 0.7699,-1.201 1.0765,-1.406c0.3065,-0.205 0.8098,-0.307 1.5117,-0.307l0,1.147l-0.0868,0c-0.3385,0 -0.5962,0.073 -0.7709,0.224c-0.1777,0.15 -0.4114,0.487 -0.701,1.017l-0.1348,0.247c-0.3115,0.561 -0.5432,0.921 -0.697,1.077c-0.1517,0.153 -0.4483,0.321 -0.8867,0.503c0.4114,0.109 0.699,0.234 0.8628,0.376c0.1637,0.143 0.4643,0.528 0.9027,1.159l0.3714,0.526l0.3245,0.464l0.4114,0.597c0.1269,0.186 0.3066,0.437 0.5382,0.751l0.2377,0.325l-1.6945,0l-0.2367,-0.317c-0.3385,-0.448 -0.694,-0.942 -1.0684,-1.478c-0.4703,-0.667 -0.9297,-1.264 -1.378,-1.79l-1.1713,0l0,3.586l-1.5597,0l0,-0.002z"/>
   <path id="svg_37" fill="#001543" d="m97.634198,271.804004l0,-1.147c0.686,-0.051 1.1903,-0.378 1.5168,-0.982c0.3235,-0.604 0.4863,-1.527 0.4863,-2.766l0.0629,-1.696l0.0309,-0.993l0,-0.829l5.5659,0l0,8.414l-1.5597,0l0,-7.189l-2.5882,0l0,0.139c0,0.125 -0.012,0.365 -0.032,0.722l-0.1028,1.983c-0.0849,1.451 -0.4074,2.537 -0.9706,3.261c-0.5632,0.724 -1.365,1.083 -2.4095,1.083z"/>
   <path id="svg_38" fill="#001543" d="m108.587298,271.804004l0,-8.414l1.4649,0l0,6.368l4.0061,-6.368l1.5597,0l0,8.414l-1.4648,0l0,-6.368l-3.9972,6.368l-1.5687,0z"/>
   <path id="svg_39" fill="#001543" d="m118.905698,271.803004l0,-8.413l1.5597,0l0.009,3.681c0.7279,0 1.1943,-0.07 1.4,-0.209c0.2067,-0.141 0.5302,-0.606 0.9745,-1.402l0.2057,-0.356c0.4114,-0.733 0.7699,-1.201 1.0765,-1.406c0.3065,-0.205 0.8108,-0.307 1.5127,-0.307l0,1.147l-0.0878,0c-0.3375,0 -0.5952,0.073 -0.7709,0.224c-0.1757,0.151 -0.4104,0.487 -0.7,1.017l-0.1348,0.247c-0.3115,0.561 -0.5442,0.921 -0.697,1.077c-0.1527,0.153 -0.4483,0.321 -0.8867,0.503c0.4114,0.109 0.698,0.234 0.8618,0.376c0.1637,0.143 0.4643,0.528 0.9027,1.159l0.3714,0.526l0.3255,0.464l0.4114,0.597c0.1268,0.186 0.3066,0.437 0.5382,0.751l0.2367,0.325l-1.6935,0l-0.2367,-0.317c-0.3385,-0.448 -0.694,-0.942 -1.0684,-1.478c-0.4703,-0.667 -0.9307,-1.264 -1.379,-1.79l-1.1713,0l0,3.586l-1.5597,0l0,-0.002z"/>
   <path id="svg_40" fill="#001543" d="m133.015098,273.717004l0,-3.13l0.7838,0c0.5852,-0.853 1.0245,-1.822 1.3171,-2.908c0.2935,-1.088 0.4393,-2.296 0.4393,-3.622l0,-0.667l5.5169,0l0,7.197l1.5598,0l0,3.13l-1.5598,0l0,-1.913l-6.4994,0l0,1.913l-1.5577,0zm2.3825,-3.13l4.1079,0l0,-6.05l-2.5892,0l0,0.145c0,1.056 -0.1268,2.073 -0.3804,3.058c-0.2526,0.984 -0.6321,1.934 -1.1383,2.847z"/>
   <path id="svg_41" fill="#001543" d="m148.249998,271.997004c-1.231,0 -2.212,-0.398 -2.945,-1.196c-0.733,-0.798 -1.101,-1.866 -1.101,-3.204c0,-1.353 0.367,-2.424 1.104,-3.212c0.735,-0.786 1.734,-1.18 2.996,-1.18c1.262,0 2.26,0.394 2.997,1.18c0.735,0.788 1.104,1.854 1.104,3.196c0,1.375 -0.37,2.453 -1.108,3.239c-0.739,0.785 -1.754,1.177 -3.047,1.177zm0.023,-1.145c1.651,0 2.477,-1.09 2.477,-3.27c0,-2.153 -0.815,-3.229 -2.446,-3.229c-1.625,0 -2.438,1.08 -2.438,3.245c0,2.168 0.802,3.254 2.407,3.254z"/>
   <path id="svg_42" fill="#001543" d="m159.969998,271.803004l0,-8.413l1.56,0l0.008,3.681c0.728,0 1.195,-0.07 1.401,-0.209c0.206,-0.141 0.53,-0.606 0.974,-1.402l0.206,-0.356c0.411,-0.733 0.77,-1.201 1.077,-1.406c0.306,-0.205 0.81,-0.307 1.512,-0.307l0,1.147l-0.088,0c-0.337,0 -0.595,0.073 -0.77,0.224c-0.176,0.151 -0.411,0.487 -0.701,1.017l-0.135,0.247c-0.312,0.561 -0.543,0.921 -0.696,1.077c-0.153,0.153 -0.449,0.321 -0.888,0.503c0.411,0.109 0.7,0.234 0.864,0.376c0.163,0.143 0.464,0.528 0.902,1.159l0.371,0.526l0.325,0.464l0.412,0.597c0.127,0.186 0.306,0.437 0.538,0.751l0.237,0.325l-1.694,0l-0.237,-0.317c-0.338,-0.448 -0.694,-0.942 -1.069,-1.478c-0.47,-0.667 -0.928,-1.264 -1.377,-1.79l-1.172,0l0,3.586l-1.56,0l0,-0.002z"/>
   <path id="svg_43" fill="#001543" d="m169.082998,271.804004l0,-8.414l1.559,0l0,3.417l3.911,0l0,-3.417l1.56,0l0,8.414l-1.56,0l0,-3.85l-3.911,0l0,3.85l-1.559,0z"/>
   <path id="svg_44" fill="#001543" d="m179.242998,271.804004l0,-8.414l1.463,0l0,6.368l4.007,-6.368l1.559,0l0,8.414l-1.465,0l0,-6.368l-3.997,6.368l-1.567,0z"/>
   <path id="svg_45" fill="#001543" d="m189.400998,271.804004l0,-8.414l6.254,0l0,1.34l-4.695,0l0,7.074l-1.559,0z"/>
  </g>
  <g id="svg_88">
   <path id="svg_50" fill="#001543" d="m630.800994,255.522994c-2.212,-1.3 -3.84,-5.789 -3.84,-11.121c0,-0.195 0.001,-0.389 0.006,-0.581l0.003,0.002c-6.15,-0.907 -10.594,-3.394 -10.708,-6.334l-0.018,0.034c-1.506,1.756 -2.365,3.786 -2.365,5.95c0,6.365 7.442,11.581 16.881,12.043l0.041,0.007zm-19.765,-11.586c0,-7.123 9.441,-12.898 21.086,-12.898c11.646,0 21.087,5.775 21.087,12.898c0,7.123 -9.441,12.899 -21.087,12.899c-11.645,0 -21.086,-5.776 -21.086,-12.899zm21.086,-11.037c2.249,0 4.16,3.202 4.869,7.67l0.003,-0.006c4.374,-0.639 7.436,-2.115 7.436,-3.83c0,-2.304 -5.51,-4.168 -12.308,-4.168c-6.797,0 -12.307,1.865 -12.307,4.168c0,1.715 3.061,3.19 7.436,3.83l0.003,0.006c0.708,-4.467 2.621,-7.67 4.868,-7.67zm1.362,22.616c9.439,-0.462 16.882,-5.678 16.882,-12.043c0,-2.164 -0.86,-4.194 -2.365,-5.95l-0.018,-0.034c-0.114,2.94 -4.557,5.427 -10.708,6.334l0.003,-0.002c0.004,0.192 0.006,0.386 0.006,0.581c0,5.332 -1.63,9.821 -3.84,11.121l0.04,-0.007zm-1.362,-14.614c1.008,0 1.987,-0.04 2.923,-0.118l-0.001,0.001c-0.466,-2.864 -1.598,-4.885 -2.922,-4.885c-1.323,0 -2.455,2.021 -2.922,4.885l0,-0.001c0.936,0.078 1.915,0.118 2.922,0.118zm0,10.607c1.693,0 3.074,-3.308 3.148,-7.456l0.008,0.002c-1.02,0.089 -2.075,0.136 -3.156,0.136c-1.08,0 -2.135,-0.046 -3.155,-0.136l0.009,-0.002c0.073,4.149 1.454,7.456 3.146,7.456z"/>
   <path id="svg_51" fill="#001543" d="m718.633994,243.937994c0,-5.444 4.701,-9.857 10.498,-9.857c5.8,0 10.5,4.414 10.5,9.857c0,5.446 -4.701,9.858 -10.5,9.858c-5.797,0 -10.498,-4.413 -10.498,-9.858zm10.498,6.243c3.239,0 5.863,-2.795 5.863,-6.243c0,-3.447 -2.624,-6.244 -5.863,-6.244c-3.237,0 -5.86,2.796 -5.86,6.244c0,3.448 2.624,6.243 5.86,6.243z"/>
   <path id="svg_52" fill="#001543" d="m751.543994,238.186994l0,15.16l-4.423,0l0,-15.16l0.014,0l-6.186,0l0,-3.429l16.766,0l0,3.428l-6.156,0l-0.015,0l0,0.001z"/>
   <path id="svg_53" fill="#001543" d="m763.064994,249.164994l-0.004,0.004l-1.698,4.179l-5.165,0l8.167,-18.589l2.754,0l2.751,0l8.168,18.589l-5.167,0l-1.697,-4.179l-0.004,-0.004l-4.051,0l-4.054,0zm4.054,-3.137l2.783,0l-0.002,0l-2.763,-6.803l-0.039,0l-2.764,6.803l-0.001,0l2.786,0z"/>
   <path id="svg_54" fill="#001543" d="m670.001994,238.186994l0,15.16l-4.424,0l0,-15.16l0.015,0l-6.187,0l0,-3.429l16.766,0l0,3.428l-6.155,0l-0.015,0l0,0.001z"/>
   <path id="svg_55" fill="#001543" d="m677.306994,243.937994c0,-5.444 4.701,-9.857 10.5,-9.857c5.798,0 10.499,4.414 10.499,9.857c0,5.446 -4.701,9.858 -10.499,9.858c-5.799,0 -10.5,-4.413 -10.5,-9.858zm10.5,6.243c3.237,0 5.862,-2.795 5.862,-6.243c0,-3.447 -2.625,-6.244 -5.862,-6.244c-3.238,0 -5.863,2.796 -5.863,6.244c0,3.448 2.625,6.243 5.863,6.243z"/>
   <path id="svg_56" fill="#001543" d="m708.465994,253.346994l2.243,0l0,-6.971l0,-0.087l7.717,-11.531l-5.165,0l-4.795,7.813l-4.794,-7.813l-5.167,0l7.718,11.531l0,0.086l0,6.971l2.243,0l0,0.001z"/>
  </g>
 </g>
</svg>