<svg width="2453" height="1738" viewBox="0 0 2453 1738" fill="none" xmlns="http://www.w3.org/2000/svg">
<g clip-path="url(#clip0)">
<path d="M2400.16 1096.72C2426.62 1061.04 2426.05 1004.6 2417.61 994.068C2489.64 987.125 2435.05 1085.77 2400.16 1096.72Z" fill="#F7F7F7"/>
<path d="M1534.03 848.37C1525.46 831.613 1497.2 822.08 1501.42 793.908C1501.54 793.032 1500.49 791.983 1499.87 791.093C1493.93 782.661 1488.4 783.245 1482.43 792.175C1467.86 813.897 1452.89 835.428 1437.9 856.773C1396.66 915.448 1242.75 1109.44 1189.61 1115.85C1179.06 1117.1 1174.68 1109.15 1173.92 1100.37C1171.07 1067.39 1204.51 983.972 1255.46 920.107C1206.63 1006.55 1198.74 1059 1209 1070.87C1245.15 938.971 1364.65 814.539 1463.93 730.09C1465.99 727.993 1467.78 726.317 1467.76 724.484C1467.39 696.13 1425.52 664.932 1378.96 666.79C1385.2 646.8 1368.09 633.016 1354.8 633.581C1341.73 657.851 1271.99 762.973 1233.98 804.13C1133.42 914.419 988.076 1027.96 832.597 1093.3C829.552 1094.86 860.778 1125.08 925.241 1095.27C923.872 1098.41 906.107 1114.06 889.869 1116.06C898.745 1124 933.307 1124.82 960.776 1116.01C1022.52 1096.2 1118.16 996.684 1146.75 959.353C1129.4 988.42 1055.83 1101.25 1041.51 1189.97C1034.02 1236.33 1039.46 1274.67 1066.73 1278.64C1072.06 1322.95 1105.72 1355.02 1130.06 1351.96C1134.23 1351.46 1138.57 1348.11 1139.87 1341.58C1163.91 1219.88 1329.93 1016.39 1345.01 1036.99C1292.03 1107.88 1244.56 1244.58 1268.21 1309.37C1282.43 1348.31 1342.08 1363.25 1419.68 1332.55C1357.64 1303.21 1371.63 1153 1395.54 1094.23C1376.18 1189.76 1388.57 1274.63 1414.36 1294.41L1415.94 1293.44C1376.06 1114.18 1467.11 945.66 1533.04 875.977C1538.95 866.061 1539.11 858.295 1534.03 848.37Z" fill="#F7F7F7"/>
<path d="M687.831 1524.03C616.494 1537.32 580.739 1403.81 685.926 1359.02C713.638 1347.21 761.729 1346.99 762.318 1375.76C632.837 1403.57 634.627 1514.53 687.831 1524.03Z" fill="#F7F7F7"/>
<path d="M920.517 211.279C440.212 323.441 -55.912 730.658 203.559 830.964C127.689 709.28 333.121 404.772 920.517 211.279Z" fill="#F7F7F7"/>
<path d="M517.789 1691.05C542.266 1686.77 543.884 1664.61 527.603 1650.81C492.949 1621.49 478.885 1571.57 494.591 1542.36C473.26 1558.47 451.087 1602.05 464.567 1645.16C472.982 1672.08 496.046 1694.85 517.789 1691.05Z" fill="#F7F7F7"/>
<path d="M1099.49 608.123C1052.89 679.137 866.197 785.653 681.827 781.736C710.645 835.538 776.942 885.284 903.311 863.767C1169.18 818.497 1488.84 478.346 1465.93 245.692C1464.95 245.692 1463.96 245.686 1462.97 245.679C1455.98 322.112 1406.24 431.799 1359.67 469.676C1387.42 434.752 1439.07 339.882 1437.88 240.547C1434.93 -4.82055 1109.68 -73.0544 733.13 85.0749C731.627 85.7112 948.425 24.9829 1043.61 37.0416C467.77 126.333 11.9393 548.849 0.321006 831.899C-20.1044 1329.83 941.125 1078.16 909.817 1384.46C957.961 1234.31 675.044 1147.37 642.31 1125.63C645.852 1124.07 648.375 1124.11 650.759 1124.6C731.503 1140.64 927.443 1226.61 931.9 1339.79C939.531 1533.35 669.687 1576.93 616.474 1537.32C624.353 1567.48 688.251 1605.52 757.631 1588.66C726.285 1605.38 593.151 1605.86 586.683 1504.92C582.768 1443.99 612.869 1404.58 612.869 1404.58C606.928 1405.08 593.869 1423.7 589.699 1431.69C586.88 1437.09 584.151 1441.36 576.664 1440.88C573.423 1440.67 568.201 1443.32 566.592 1446.38C511.799 1551.26 588.866 1674.92 737.941 1663.95C835.282 1656.79 900.731 1611.49 927.405 1582.83C913.005 1592.62 885.972 1609.51 865.12 1612.46C864.799 1611.65 864.469 1610.84 864.148 1610.03C934.121 1569.52 992.035 1509.65 1002.18 1428.92C1056.12 999.561 150.428 1050.37 107.766 796.258C50.7894 456.874 1117.78 0.0469027 1367.05 216.512C1338.85 76.7818 967.099 138.807 967.004 137.781C1148.86 77.6824 1393.74 88.9664 1399.49 234.843C1404.1 351.62 1175 639.938 737.022 734.456C825.358 763.466 1014.35 683.293 1099.49 608.123Z" fill="#F7F7F7"/>
<path d="M2442.25 977.132C2422.93 928.871 2218.24 948.544 2097.47 1000.5C2094.87 994.627 2092.1 989.136 2089.16 984.056C2123.53 896.687 2227.93 736.963 2339.67 628.13C2358.95 609.366 2378.45 592.106 2397.82 576.995C2400.1 544.418 2313.23 502.103 2255.86 548.507C2185.86 622.772 2113.96 767.414 2082.13 835.938L2075.5 836.163C2090.23 759.418 2168.22 619.588 2215.84 573.883C2153.49 576.066 2022.5 835.081 1952.01 1073.27H1951.86C1877.52 1104.61 1739 1188.32 1691.65 1238.49C1689.02 1241.28 1685.58 1230.97 1685.35 1227.3C1677.29 1100.79 1827.8 1009.15 1947.32 925.375C1962.42 914.775 1952.11 883.611 1945.79 878.172C1900.79 944.422 1777.76 1013.93 1721.43 1090.02C1762.31 1011.08 1939.8 898.396 1937.04 854.534C1933.06 791.085 1852.41 725.587 1817.87 708.159C1824.14 697.324 1839.79 667.261 1834.56 635.216C1828.59 598.56 1790.38 582.434 1758.05 585.57C1763.85 607.015 1757.52 640.525 1751.64 658.26C1688.72 615.873 1590.93 609.404 1590.06 663.622C1633.57 632.506 1723.7 655.1 1763.47 682.094C1588.03 625.281 1543.02 719.98 1565.7 770.105C1565.7 770.105 1638.74 767.907 1697.46 789.562C1684.22 826.946 1596.8 1000.68 1496.88 1108.73C1503.94 1106.45 1510.75 1105.03 1516.82 1102.31C1528.93 1096.94 1639.77 948.501 1670.47 902.341C1671.06 905.247 1645.84 957.651 1599.32 1029.09C1651.04 969.668 1734.49 840.041 1755.4 806.813C1755.4 806.813 1816.63 830.772 1819.31 873.532C1823.85 945.944 1505.81 1120.01 1510.54 1253.87C1511.41 1278.43 1524.26 1314.27 1549.97 1337.59C1539.55 1316.71 1534.41 1289.37 1537.78 1258.8C1542.47 1216.28 1563.65 1167.52 1610.14 1121.14C1524.54 1227.21 1554.78 1323.19 1573.09 1349.54C1293.75 1367.17 1067.38 1466.31 1066.31 1620.29C1066.97 1623.68 1064.07 1628.3 1061.89 1631.72C1033.77 1676.04 1046.06 1731.34 1065.23 1738C1196.95 1579.44 1422.58 1449.92 1620.61 1412.73C1620.64 1409.05 1604.63 1409.6 1578.69 1413.72C1482.83 1427.2 1361.36 1461.76 1263.61 1520.44C1260.97 1438.72 1616.22 1355.9 1839.9 1387.6C1843.58 1355.19 1774.37 1342.59 1697.37 1341.32C1733.98 1196.33 1963.28 1076.16 2051.49 1046.09C1964.43 1083.07 1824.53 1169.23 1762.16 1263.05C1821.11 1210.53 1899.53 1153.84 1932.7 1138.51C1850.93 1476.32 1937.58 1613.78 1999.47 1611.62C2042.49 1610.12 2082.32 1565.71 2107.23 1463.99C2087.66 1509.63 2062.8 1540.41 2039.21 1541.24C1980.67 1543.28 1972.93 1456.66 1972.93 1456.66C2010.35 1551.74 2117.8 1477.78 2129.56 1308.15C2130.39 1296.42 2131.12 1284.39 2131.7 1271.86C2134.24 1216.74 2131.82 1148.57 2121.82 1088.88C2205.52 1063.3 2341.09 1061.49 2377.71 1089.72C2386.75 1039.38 2293.7 1027.57 2142.95 1060.41C2245 1027.4 2389.32 1015.75 2398.82 1064.21C2403.64 1088.81 2389.42 1125.12 2378.56 1139.08C2373.32 1145.81 2390.69 1140.72 2395.27 1134.84C2420.43 1102.55 2461.92 1026.3 2442.25 977.132ZM2032.56 1427.32C1986.04 1430.08 1993.87 1250.29 2049.63 1106.59C2054.82 1104.35 2060.7 1102.31 2067.04 1100.39C2076.67 1211.03 2058.78 1329.37 2040.27 1381.34C2066.85 1380.43 2096.02 1264.86 2094.34 1155.13L2099.87 1154.95C2114.81 1329.63 2061.82 1426.28 2032.56 1427.32Z" fill="#F7F7F7"/>
</g>
<defs>
<clipPath id="clip0">
<rect width="2453" height="1738" fill="white"/>
</clipPath>
</defs>
</svg>
