<svg width="627" height="335" viewBox="0 0 627 335" fill="none" xmlns="http://www.w3.org/2000/svg">
<path fill-rule="evenodd" clip-rule="evenodd" d="M154.755 0.670964C91.9368 -2.23797 28.72 34.9915 5.83506 111.674C-11.5411 169.898 16.0482 234.606 59.8078 278.802C103.499 322.929 166.173 349.375 221.471 326.73C253.337 313.682 277.779 283.496 291.759 247.402C305.779 211.201 309.683 168.11 299.607 127.868C279.245 46.5455 217.574 3.57991 154.755 0.670964ZM154.051 15.8867C210.068 18.4807 266.083 56.6888 284.831 131.568C294.092 168.553 290.517 208.432 277.555 241.9C264.551 275.475 242.508 301.657 215.699 312.634C168.544 331.944 112.199 310.066 70.6318 268.085C29.1329 226.172 5.22326 166.988 20.431 116.03C41.2616 46.2309 98.0327 13.2927 154.051 15.8867Z" fill="white"/>
<path d="M220.969 104.777L220.97 104.777L209.895 85.6051L209.856 85.6278L209.838 85.597L206.747 87.3825C202.62 88.9923 197.961 89.3482 193.353 88.1136C182.74 85.2699 176.111 74.9827 177.581 64.3782L178.343 61.5346L178.334 61.5323L178.359 61.4408L178.206 61.4L178.206 61.3999L156.815 55.6681L156.008 58.6798C154.267 62.9593 151.141 66.7133 146.829 69.2018C136.525 75.1476 123.349 71.6169 117.398 61.3159C117.341 61.2158 117.284 61.1154 117.228 61.0148L117.224 61.0153L117.173 61.0448L117.143 60.9927L97.9657 72.0589L97.9702 72.0667L97.8719 72.1235L97.8713 72.1242C100.76 76.9504 101.766 82.8946 100.195 88.7551C97.3769 99.2736 87.2364 105.876 76.723 104.552L73.5268 103.695L67.8043 125.052L67.8045 125.052L67.7456 125.272L69.9386 125.86C74.5493 127.526 78.6193 130.766 81.263 135.343C86.5705 144.531 84.3363 156.002 76.4798 162.593L72.916 164.649L73.0225 164.834L73.0216 164.834L84.0963 184.006L84.0969 184.006L84.1544 184.105L84.2639 184.042L84.4372 184.117C89.2527 181.261 95.1713 180.273 101.008 181.837C108.604 183.872 114.159 189.721 116.165 196.77C117.317 203.262 122.102 208.829 128.892 210.648C138.241 213.154 147.851 207.605 150.357 198.255C152.679 189.588 148.08 180.696 139.947 177.449C137.667 176.434 135.249 175.764 132.868 175.104L132.867 175.104C130.347 174.405 127.868 173.718 125.634 172.645L125.638 172.633C108.872 163.131 99.9546 143.193 105.174 123.713C111.37 100.591 135.136 86.8699 158.258 93.0654C169.687 96.1278 178.819 103.483 184.385 112.932L184.385 112.933C188.297 119.574 190.446 127.25 190.392 135.196C190.335 137.514 190.49 153.935 205.694 162.935C205.732 162.957 205.769 162.978 205.806 162.997C206.932 163.758 208.202 164.347 209.589 164.718C216.301 166.517 223.201 162.533 225 155.821C226.561 149.991 223.763 144.021 218.603 141.373C211.743 136.255 208.326 127.294 210.677 118.519C212.242 112.678 216.062 108.043 220.949 105.302L220.957 105.163L221.134 105.061L220.969 104.777Z" fill="white"/>
<path d="M159.307 273.816C159.911 273.579 160.535 273.373 161.176 273.202C170.443 270.718 179.968 276.218 182.451 285.485C182.511 285.708 182.566 285.931 182.616 286.154L182.633 286.162L201.364 281.144L200.441 277.701C200.244 275.681 200.399 273.592 200.955 271.517C203.438 262.25 212.964 256.751 222.23 259.234C222.455 259.294 222.677 259.358 222.897 259.426L222.898 259.426L223.019 259.476L223.077 259.256L223.12 259.268L228.021 240.843L228.019 240.835L228.014 240.834L228.014 240.833L227.896 240.802L227.904 240.772L226.189 240.307C223.799 239.472 221.556 238.1 219.646 236.19C213.092 229.637 212.87 219.149 218.979 212.329L220.103 211.205L220.091 211.194C220.11 211.177 220.128 211.16 220.146 211.143L220.142 211.128L206.494 197.48L204.409 199.565C202.644 200.927 200.585 201.97 198.297 202.583C189.03 205.066 179.505 199.567 177.022 190.3C176.962 190.076 176.907 189.851 176.856 189.626L176.841 189.622L158.11 194.641L158.922 197.672C159.174 199.8 159.034 202.012 158.445 204.209C156.983 209.666 153.079 213.816 148.224 215.799L148.072 216.12L159.849 230.584L161.774 231.575C163.807 225.841 168.536 221.172 174.856 219.479C185.059 216.745 195.546 222.8 198.28 233.002C201.014 243.205 194.959 253.692 184.756 256.426C181.218 257.374 177.646 257.265 174.375 256.293L156.076 260.569L159.149 273.733L159.307 273.816Z" fill="white"/>
<path d="M157.726 274.362C163.486 272.819 166.904 266.898 165.361 261.138C163.818 255.378 157.897 251.959 152.137 253.503C146.377 255.046 142.958 260.967 144.502 266.727C146.045 272.487 151.966 275.905 157.726 274.362Z" fill="white"/>
<path d="M154.973 236.795C160.87 235.215 164.37 229.154 162.79 223.257C161.21 217.36 155.148 213.86 149.251 215.44C143.354 217.02 139.855 223.082 141.435 228.979C143.015 234.876 149.076 238.375 154.973 236.795Z" fill="white"/>
<path d="M153.879 253.119C153.879 253.119 163.832 251.676 174.861 256.444C175.18 256.582 173.962 268.359 173.962 268.359L156.466 264.369L153.879 253.119Z" fill="white"/>
<path fill-rule="evenodd" clip-rule="evenodd" d="M612.034 137.218L626.718 122.391H607.966L593.278 137.218L607.966 152.045H626.718L612.034 137.218ZM579.709 123.525L605.993 96.9825L624.745 96.9825L589.087 132.982L579.709 123.525ZM365.2 147.367C368.764 148.188 372.413 148.598 376.149 148.598C380.657 148.598 384.478 147.929 387.612 146.59C390.79 145.207 393.173 143.371 394.761 141.082C396.35 138.749 397.144 136.157 397.144 133.306C397.144 130.023 396.264 127.432 394.504 125.531C392.786 123.63 390.747 122.269 388.385 121.449C386.024 120.585 383.126 119.829 379.691 119.181C377.029 118.662 375.118 118.187 373.959 117.755C372.8 117.28 372.22 116.589 372.22 115.682C372.22 113.781 374.174 112.831 378.081 112.831C382.031 112.831 386.217 113.954 390.639 116.2L395.212 105.12C392.936 103.824 390.296 102.852 387.29 102.204C384.328 101.513 381.301 101.168 378.21 101.168C373.702 101.168 369.859 101.837 366.682 103.176C363.547 104.515 361.186 106.351 359.597 108.684C358.009 111.017 357.215 113.608 357.215 116.459C357.215 119.742 358.073 122.356 359.791 124.3C361.508 126.2 363.526 127.583 365.844 128.447C368.163 129.267 371.061 130.045 374.539 130.779C377.244 131.341 379.176 131.859 380.335 132.334C381.537 132.81 382.138 133.522 382.138 134.473C382.138 135.293 381.687 135.92 380.786 136.352C379.884 136.741 378.381 136.935 376.278 136.935C373.83 136.935 371.276 136.568 368.614 135.833C365.952 135.056 363.547 134.041 361.401 132.788L356.506 143.933C358.782 145.358 361.68 146.503 365.2 147.367ZM434.421 142.961C438.285 146.719 443.674 148.598 450.586 148.598C457.499 148.598 462.887 146.719 466.751 142.961C470.615 139.203 472.547 133.933 472.547 127.151V102.204H457.606V126.697C457.606 130.023 457.005 132.442 455.803 133.954C454.644 135.466 452.948 136.222 450.715 136.222C448.482 136.222 446.765 135.466 445.563 133.954C444.404 132.442 443.824 130.023 443.824 126.697V102.204H428.625V127.151C428.625 133.933 430.557 139.203 434.421 142.961ZM526.18 136.157H522.058V147.561H506.859V102.204H528.563C532.727 102.204 536.355 102.895 539.447 104.278C542.538 105.66 544.921 107.647 546.595 110.239C548.27 112.831 549.107 115.855 549.107 119.31C549.107 122.55 548.377 125.38 546.917 127.799C545.458 130.218 543.354 132.14 540.606 133.566L550.073 147.561H533.844L526.18 136.157ZM533.779 119.31C533.779 117.626 533.264 116.33 532.234 115.423C531.203 114.472 529.657 113.997 527.597 113.997H522.058V124.624H527.597C529.657 124.624 531.203 124.17 532.234 123.263C533.264 122.313 533.779 120.995 533.779 119.31ZM388.135 212.933H401.341V232.112C398.678 233.97 395.586 235.395 392.065 236.389C388.543 237.382 385.086 237.879 381.693 237.879C376.884 237.879 372.568 236.886 368.745 234.899C364.923 232.868 361.917 230.061 359.727 226.475C357.58 222.847 356.506 218.743 356.506 214.164C356.506 209.585 357.58 205.503 359.727 201.918C361.917 198.289 364.945 195.481 368.81 193.494C372.718 191.464 377.12 190.449 382.016 190.449C386.439 190.449 390.39 191.205 393.868 192.716C397.39 194.185 400.31 196.345 402.629 199.196L392.902 207.814C390.068 204.488 386.697 202.825 382.789 202.825C379.439 202.825 376.776 203.84 374.801 205.87C372.825 207.9 371.838 210.665 371.838 214.164C371.838 217.576 372.804 220.32 374.736 222.393C376.712 224.466 379.331 225.503 382.595 225.503C384.528 225.503 386.375 225.136 388.135 224.402V212.933ZM472.661 225.309V236.842H435.17V191.485H471.823V203.019H450.114V208.332H469.182V219.348H450.114V225.309H472.661ZM516.429 236.842L519.456 228.937H536.592L539.619 236.842H555.337L535.625 191.485H520.68L500.969 236.842H516.429ZM528.024 206.518L532.404 217.922H523.644L528.024 206.518ZM601.845 225.438H597.723V236.842H582.52V191.485H604.229C608.394 191.485 612.023 192.177 615.115 193.559C618.207 194.941 620.591 196.928 622.266 199.52C623.941 202.112 624.778 205.136 624.778 208.591C624.778 211.831 624.048 214.661 622.588 217.08C621.128 219.499 619.023 221.421 616.275 222.847L625.744 236.842H609.511L601.845 225.438ZM609.447 208.591C609.447 206.907 608.931 205.611 607.901 204.704C606.87 203.753 605.324 203.278 603.262 203.278H597.723V213.905H603.262C605.324 213.905 606.87 213.451 607.901 212.544C608.931 211.594 609.447 210.276 609.447 208.591Z" fill="white"/>
</svg>
